<svg xmlns="http://www.w3.org/2000/svg" width="32" height="32" viewBox="0 0 32 32" fill="none">
<path d="M9.33366 10.6666H5.33366C3.86699 10.6666 2.66699 9.46663 2.66699 7.99996V5.33329C2.66699 3.86663 3.86699 2.66663 5.33366 2.66663H9.33366C10.8003 2.66663 12.0003 3.86663 12.0003 5.33329V7.99996C12.0003 9.46663 10.8003 10.6666 9.33366 10.6666Z" fill="#F6892F"/>
<path d="M27.733 9.33333H22.933C22.053 9.33333 21.333 8.61333 21.333 7.73333V5.6C21.333 4.72 22.053 4 22.933 4H27.733C28.613 4 29.333 4.72 29.333 5.6V7.73333C29.333 8.61333 28.613 9.33333 27.733 9.33333Z" fill="#F6892F"/>
<path d="M27.733 19.3333H22.933C22.053 19.3333 21.333 18.6133 21.333 17.7333V15.6C21.333 14.72 22.053 14 22.933 14H27.733C28.613 14 29.333 14.72 29.333 15.6V17.7333C29.333 18.6133 28.613 19.3333 27.733 19.3333Z" fill="#F6892F"/>
<path opacity="0.96" d="M21.3333 17.6666C21.88 17.6666 22.3333 17.2133 22.3333 16.6666C22.3333 16.12 21.88 15.6666 21.3333 15.6666H17.6667V7.66663H21.3333C21.88 7.66663 22.3333 7.21329 22.3333 6.66663C22.3333 6.11996 21.88 5.66663 21.3333 5.66663H12C11.4533 5.66663 11 6.11996 11 6.66663C11 7.21329 11.4533 7.66663 12 7.66663H15.6667V24C15.6667 26.0266 17.3067 27.6666 19.3333 27.6666H21.3333C21.88 27.6666 22.3333 27.2133 22.3333 26.6666C22.3333 26.12 21.88 25.6666 21.3333 25.6666H19.3333C18.4133 25.6666 17.6667 24.92 17.6667 24V17.6666H21.3333Z" fill="#F6892F"/>
<path d="M27.733 29.3333H22.933C22.053 29.3333 21.333 28.6133 21.333 27.7333V25.6C21.333 24.72 22.053 24 22.933 24H27.733C28.613 24 29.333 24.72 29.333 25.6V27.7333C29.333 28.6133 28.613 29.3333 27.733 29.3333Z" fill="#F6892F"/>
</svg>