<svg xmlns="http://www.w3.org/2000/svg" width="91" height="150" viewBox="0 0 91 150" fill="none">
<path fill-rule="evenodd" clip-rule="evenodd" d="M46.883 77.1139L-36.7569 125.403L-66.4504 73.9728L17.0588 25.7587C17.2466 25.563 17.4624 25.3913 17.7025 25.2502L31.0577 17.3973L44.5361 9.75773C45.4538 9.23762 46.5771 9.23762 47.4947 9.75773L60.9731 17.3973L74.3284 25.2502C75.2376 25.7848 75.7993 26.7576 75.8077 27.8124L75.9308 43.3048L75.8077 58.7972C75.7993 59.852 75.2376 60.8248 74.3284 61.3595L60.9731 69.2123L47.4947 76.8519C47.2988 76.9629 47.0936 77.0502 46.883 77.1139Z" fill="#FF8000"/>
<path fill-rule="evenodd" clip-rule="evenodd" d="M30.2676 112.655L-32.7085 149.014L-54.9631 110.468L7.90124 74.1736C8.07199 74.0072 8.26394 73.8599 8.47454 73.736L18.1168 68.0664L27.8479 62.5508C28.7655 62.0307 29.8889 62.0307 30.8065 62.5508L40.5377 68.0664L50.1799 73.736C51.0891 74.2706 51.6508 75.2435 51.6592 76.2982L51.7481 87.4835L51.6592 98.6687C51.6508 99.7234 51.0891 100.696 50.1799 101.231L40.5377 106.901L30.8065 112.416C30.6333 112.514 30.4527 112.594 30.2676 112.655Z" fill="#FFB564"/>
</svg>