<svg xmlns="http://www.w3.org/2000/svg" width="116" height="201" viewBox="0 0 116 201" fill="none">
<path fill-rule="evenodd" clip-rule="evenodd" d="M84.0629 130.891L163.753 84.8821L135.481 35.9134L55.9155 81.8506C55.6588 81.9155 55.4087 82.015 55.1723 82.149L42.4099 89.3828L29.7641 96.8185C28.8548 97.3531 28.2932 98.3259 28.2848 99.3807L28.1682 114.05L28.2848 128.72C28.2932 129.774 28.8548 130.747 29.7641 131.282L42.4099 138.717L55.1723 145.951C56.0899 146.471 57.2133 146.471 58.1309 145.951L70.8933 138.717L83.5391 131.282C83.7296 131.17 83.9048 131.039 84.0629 130.891Z" fill="#F53255"/>
<path fill-rule="evenodd" clip-rule="evenodd" d="M121.276 134.111L181.292 99.4602L160.103 62.7593L100.192 97.3489C99.968 97.4134 99.7501 97.5043 99.5427 97.6219L90.3481 102.833L81.2376 108.19C80.3284 108.725 79.7667 109.698 79.7583 110.753L79.6743 121.321L79.7583 131.889C79.7667 132.944 80.3284 133.917 81.2376 134.452L90.3481 139.809L99.5426 145.02C100.46 145.54 101.584 145.54 102.501 145.02L111.696 139.809L120.806 134.452C120.975 134.352 121.132 134.238 121.276 134.111Z" fill="#F6892F"/>
</svg>