<svg xmlns="http://www.w3.org/2000/svg" width="32" height="32" viewBox="0 0 32 32" fill="none">
  <path d="M24 2.66663H8C5.78667 2.66663 4 4.43996 4 6.62663V21.1733C4 23.36 5.78667 25.1466 8 25.1466H9.01333C10.0667 25.1466 11.0933 25.56 11.84 26.3066L14.12 28.56C15.16 29.5866 16.84 29.5866 17.88 28.56L20.16 26.3066C20.9067 25.56 21.9333 25.1466 22.9867 25.1466H24C26.2133 25.1466 28 23.36 28 21.1733V6.62663C28 4.43996 26.2133 2.66663 24 2.66663ZM16 7.39996C17.44 7.39996 18.6 8.57329 18.6 9.99996C18.6 11.4133 17.48 12.5466 16.0933 12.6C16.04 12.6 15.96 12.6 15.8933 12.6C14.4933 12.5466 13.3867 11.4133 13.3867 9.99996C13.4 8.57329 14.56 7.39996 16 7.39996ZM19.6667 19.5866C17.6533 20.9333 14.3467 20.9333 12.3333 19.5866C10.56 18.4133 10.56 16.4666 12.3333 15.28C14.36 13.9333 17.6667 13.9333 19.6667 15.28C21.44 16.4666 21.44 18.4 19.6667 19.5866Z" fill="#F6892F"/>
</svg>