<svg xmlns="http://www.w3.org/2000/svg" viewBox="0 0 131.3 40"><path fill="#BCBCBC" d="M55.2 12l-1.7 12.1H57L55.2 12zm47.6-1.1c-1.3 0-2 .8-2 2.4v13.3c0 1.6.7 2.4 2 2.4s2-.8 2-2.4V13.3c0-1.6-.7-2.4-2-2.4zM0 4v32h131.3V4H0zm15.5 12.2c0 2-.5 3.5-1.4 4.5-1 1-2.4 1.5-4.3 1.5H8v10H4.1V7.8h5.7c1.9 0 3.3.5 4.3 1.5s1.4 2.5 1.4 4.5v2.4zm13.2-.2h-3.6v-2.8c0-1.5-.6-2.3-1.9-2.3-1.3 0-1.9.8-1.9 2.3v13.7c0 1.5.6 2.2 1.9 2.2 1.3 0 1.9-.7 1.9-2.2v-3.8h3.6v3.5c0 1.9-.5 3.4-1.4 4.4-1 1-2.4 1.6-4.2 1.6s-3.3-.6-4.2-1.6c-1-1-1.4-2.5-1.4-4.4V13.4c0-1.9.5-3.4 1.4-4.4 1-1 2.4-1.6 4.2-1.6s3.2.6 4.2 1.6 1.4 2.5 1.4 4.4V16zm18.2 16.2h-3.6V13.7h-.1l-2.8 18.5h-3.2l-2.8-18.5h-.1v18.5H31V7.8h5.5L39 25.3l2.5-17.5H47l-.1 24.4zm11.2 0l-.7-4.9v.1H53l-.7 4.8h-3.6l4-24.5H58l4 24.5h-3.9zm16.8-16.5h-3.6v-2.3c0-1.6-.7-2.4-2-2.4s-2 .8-2 2.4v13.4c0 1.6.7 2.4 2 2.4s2-.8 2-2.4V22h-1.9v-3.5H75v8c0 2-.5 3.5-1.5 4.6-1 1.1-2.4 1.6-4.3 1.6s-3.3-.5-4.3-1.6-1.5-2.6-1.5-4.6V13.6c0-2 .5-3.5 1.5-4.6 1-1.1 2.4-1.6 4.3-1.6s3.3.5 4.3 1.6 1.5 2.6 1.5 4.6v2.1zm6.2 16.5h-3.7v-3.7h3.7v3.7zM94.8 16h-3.6v-2.8c0-1.5-.6-2.3-1.9-2.3-1.3 0-1.9.8-1.9 2.3v13.7c0 1.5.6 2.2 1.9 2.2 1.3 0 1.9-.7 1.9-2.2v-3.8h3.6v3.5c0 1.9-.5 3.4-1.4 4.4-1 1-2.4 1.6-4.2 1.6S86 32 85 31s-1.4-2.5-1.4-4.4V13.4c0-1.9.4-3.4 1.4-4.4s2.4-1.6 4.2-1.6 3.2.6 4.2 1.6 1.4 2.5 1.4 4.4V16zm13.8 10.4c0 1.9-.5 3.5-1.5 4.5-1 1.1-2.5 1.6-4.3 1.6s-3.4-.5-4.4-1.5c-1-1.1-1.5-2.6-1.5-4.5V13.6c0-1.9.5-3.5 1.5-4.5s2.5-1.6 4.3-1.6 3.3.5 4.3 1.6 1.5 2.6 1.5 4.5v12.8zm18.6 5.8h-3.6V13.7h-.1l-2.8 18.5h-3.2l-2.8-18.5h-.1v18.5h-3.4V7.8h5.5l2.5 17.5h.1l2.5-17.5h5.5l-.1 24.4zM9.8 11.3H8v7.5h1.8c.6 0 1.1-.2 1.4-.5.3-.3.5-.9.5-1.8v-2.9c0-.8-.2-1.4-.5-1.8-.3-.4-.8-.5-1.4-.5z"></path></svg>