<svg width="56" height="56" viewBox="0 0 56 56" fill="none" xmlns="http://www.w3.org/2000/svg">
<g clip-path="url(#clip0_45_5735)">
<path d="M1.74121 37.7391C5.69741 48.4014 15.9606 56 27.9996 56C40.0387 56 50.3019 48.4014 54.2581 37.7391L27.9996 35.3044L1.74121 37.7391Z" fill="#FFDA44"/>
<path d="M27.9996 0C15.9606 0 5.69741 7.5985 1.74121 18.2609L27.9996 20.6956L54.2581 18.2608C50.3019 7.5985 40.0387 0 27.9996 0Z" fill="#091327"/>
<path d="M1.74158 18.2609C0.616109 21.2942 0 24.575 0 28C0 31.425 0.616109 34.7058 1.74158 37.7391H54.2585C55.384 34.7058 56 31.425 56 28C56 24.575 55.384 21.2942 54.2584 18.2609H1.74158Z" fill="#D80027"/>
</g>
<defs>
<clipPath id="clip0_45_5735">
<rect width="56" height="56" fill="white"/>
</clipPath>
</defs>
</svg>
