<svg xmlns="http://www.w3.org/2000/svg" width="263" height="32" fill="none" viewBox="0 0 263 32"><g fill="#BCBCBC" clip-path="url(#clip0_133_2688)"><path d="M5.5 25.035h5.24v2.538h7.888v-2.538c.918 0 1.768.005 2.618 0 .85-.006 1.699-.032 2.549-.047l-.01-.01c.015.733.036 1.462.041 2.197.005 1.605 0 3.215 0 4.82H5.521c.016-1.327.037-2.649.042-3.976 0-1.002-.032-2.003-.047-3l-.016.016zM217.433 6.887V25.25h-18.714V6.887h18.714zm-3.745 14.712V10.563h-11.24V21.6h11.24zM221.289 6.876h18.714v18.38h-18.714V6.875zm3.745 3.667v11.056h11.24V10.543h-11.24zM66.984 17.943v7.317h-3.687V6.887h18.678v18.368h-3.677v-7.317H66.984v.005zm.032-7.39v3.656H78.25v-3.656H67.017zM131.016 6.881h18.667v3.62h-14.922v3.744h7.458v3.656h-7.469v3.708h14.927v3.651h-18.661V6.881zM168.514 21.662l-2.916-.052h-.766v-3.661H157.3v7.343c-1.211 0-2.344.005-3.472-.01-.089 0-.22-.142-.252-.242a1.522 1.522 0 01-.021-.456V6.892h18.725v11.01h-3.703c0 .734.011 1.41 0 2.092-.01.561-.047 1.117-.073 1.679l.01-.01zm-11.172-11.12v3.667h11.23v-3.666h-11.23zM44.435 25.27H40.71V6.881h3.698v7.322h11.308V6.887h3.708v18.368H55.75v-7.301H44.434v7.316zM191.149 10.537h-11.282V25.25h-3.734V6.897h18.709V25.26h-3.698V10.537h.005zM262.605 6.887v18.378h-3.719V10.553h-11.303V25.26h-3.708V6.887h18.73zM85.86 25.265V6.892h18.693v3.624H89.61V21.62h14.958v3.645H85.859zM16.006 17.303h-2.602V4.505c-.84 0-1.615-.015-2.392.016-.094 0-.241.252-.246.394-.027.697-.01 1.395-.01 2.16H6.007c-.24 0-.45 0-.445-.335.01-2.208.015-4.411.02-6.62 0-.03.027-.062.053-.12h18.137v7.076h-1.19c-1.149 0-2.303-.01-3.451.005-.378.005-.53-.095-.515-.488.032-.66.011-1.332.011-2.046h-2.622v12.756zM119.746 17.886l-6.845.026h-.734v7.338h-3.729V6.887h3.692v7.39h7.611l-.011-.01v3.64l.011-.016.005-.005z"></path><path d="M119.734 17.901h3.661v3.72h3.751v3.634h-3.714V21.61h-3.687v-3.73l-.011.016v.005zM26.43 12.179h2.596V14.8h2.586v2.507h-2.57v2.523h-2.644l.01.016c.017-.34.043-.677.043-1.018 0-2.223 0-4.447-.005-6.666l-.016.016zM2.911 19.863H.41c-.015-.178-.042-.34-.042-.503 0-2.203.01-4.406-.015-6.61 0-.471.162-.571.603-.555.634.02 1.28-.032 1.914-.053l-.01-.01a.86.86 0 01.052.2c0 2.511 0 5.03-.016 7.541l.016-.015v.005zM123.328 10.506c.026-.435.074-.87.079-1.311.016-.766 0-1.532 0-2.319h3.734v3.614h-3.829l.016.016zM168.484 21.667h3.787v3.593h-3.692c0-.414.01-.813 0-1.217-.021-.797-.053-1.589-.084-2.386h-.011v.01z"></path><path d="M119.745 14.272v-3.766h3.587l-.015-.016c.026.52.068 1.044.078 1.569.016.697 0 1.39 0 2.197h-3.661l.011.016zM5.516 25.019H2.914v-5.15l-.016.015H5.5v5.161l.016-.021v-.005zM23.784 24.988c.02-.42.058-.84.063-1.264.01-1.128.016-2.25 0-3.378 0-.341.115-.44.45-.436.709 0 1.412-.036 2.12-.057l-.01-.016v5.14h-2.634l.016.01h-.005zM2.87 12.142c.02-.299.063-.603.068-.902.005-1.338 0-2.69 0-4.075h2.554v4.972H2.86l.01.01v-.005zM26.442 12.163h-2.575V7.165h2.555v5.014l.02-.016z"></path></g><defs><clipPath id="clip0_133_2688"><path fill="#fff" d="M0 0H262.252V32H0z" transform="translate(.352)"></path></clipPath></defs></svg>