<svg xmlns="http://www.w3.org/2000/svg" width="32" height="32" viewBox="0 0 32 32" fill="none">
<path d="M21.3333 2.66675H10.6667C6 2.66675 4 5.33341 4 9.33342V22.6667C4 26.6667 6 29.3334 10.6667 29.3334H21.3333C26 29.3334 28 26.6667 28 22.6667V9.33342C28 5.33341 26 2.66675 21.3333 2.66675ZM14.04 21.9601C14.4267 22.3467 14.4267 22.9867 14.04 23.3734C13.84 23.5734 13.5867 23.6667 13.3333 23.6667C13.08 23.6667 12.8267 23.5734 12.6267 23.3734L9.96 20.7067C9.57333 20.3201 9.57333 19.6801 9.96 19.2934L12.6267 16.6267C13.0133 16.2401 13.6533 16.2401 14.04 16.6267C14.4267 17.0134 14.4267 17.6534 14.04 18.0401L12.08 20.0001L14.04 21.9601ZM22.04 20.7067L19.3733 23.3734C19.1733 23.5734 18.92 23.6667 18.6667 23.6667C18.4133 23.6667 18.16 23.5734 17.96 23.3734C17.5733 22.9867 17.5733 22.3467 17.96 21.9601L19.92 20.0001L17.96 18.0401C17.5733 17.6534 17.5733 17.0134 17.96 16.6267C18.3467 16.2401 18.9867 16.2401 19.3733 16.6267L22.04 19.2934C22.4267 19.6801 22.4267 20.3201 22.04 20.7067ZM24.6667 12.3334H22C19.9733 12.3334 18.3333 10.6934 18.3333 8.66675V6.00008C18.3333 5.45341 18.7867 5.00008 19.3333 5.00008C19.88 5.00008 20.3333 5.45341 20.3333 6.00008V8.66675C20.3333 9.58675 21.08 10.3334 22 10.3334H24.6667C25.2133 10.3334 25.6667 10.7867 25.6667 11.3334C25.6667 11.8801 25.2133 12.3334 24.6667 12.3334Z" fill="#F6892F"/>
</svg>