<svg xmlns="http://www.w3.org/2000/svg" width="32" height="32" viewBox="0 0 32 32" fill="none">
  <path d="M16.0364 0L15.9636 0C7.14713 0 0 7.14713 0 15.9636L0 16.0364C0 24.8529 7.14713 32 15.9636 32H16.0364C24.8529 32 32 24.8529 32 16.0364V15.9636C32 7.14713 24.8529 0 16.0364 0Z" fill="url(#paint0_linear_12_1899)"/>
  <path d="M25.527 15.9993V16.0542C25.5012 20.634 22.2253 24.4603 17.8922 25.337C17.5985 25.3953 17.3014 25.4413 16.9987 25.4738C16.6713 25.5075 16.3372 25.5265 16.0009 25.5265C14.678 25.5265 13.4178 25.2563 12.272 24.7664L7.85148 25.2373C7.09696 25.318 6.53978 24.5478 6.85257 23.8572L8.04095 21.2259C7.05101 19.7247 6.47363 17.9276 6.47363 15.9993C6.47363 10.748 10.7484 6.47314 16.0009 6.47314C20.9674 6.47314 25.0584 10.2939 25.4889 15.1506C25.5147 15.4286 25.527 15.7145 25.527 15.9993Z" fill="white"/>
  <path d="M20.58 13.2181C21.0072 12.8683 21.5935 13.3919 21.2931 13.8549L19.293 16.9402L18.2347 18.5726C18.0093 18.9201 17.5362 19.0031 17.2055 18.7531L15.4509 17.4223L14.3691 16.6028C14.2816 16.5366 14.1594 16.5389 14.0742 16.6084L11.4194 18.7744C10.9923 19.123 10.407 18.5995 10.7075 18.1365L12.5809 15.2485L13.6392 13.6161C13.8646 13.2686 14.3377 13.1856 14.6684 13.4356L16.3714 14.726L17.4521 15.5444C17.5407 15.6106 17.6629 15.6083 17.7481 15.5388L20.58 13.217V13.2181Z" fill="url(#paint1_linear_12_1899)"/>
  <defs>
    <linearGradient id="paint0_linear_12_1899" x1="4.67505" y1="27.3249" x2="27.3238" y2="4.67617" gradientUnits="userSpaceOnUse">
      <stop stop-color="#0498FA"/>
      <stop offset="0.34" stop-color="#5C5EFE"/>
      <stop offset="0.73" stop-color="#F44E90"/>
      <stop offset="1" stop-color="#FA8679"/>
    </linearGradient>
    <linearGradient id="paint1_linear_12_1899" x1="12.0293" y1="20.0009" x2="20.0038" y2="12.0264" gradientUnits="userSpaceOnUse">
      <stop stop-color="#0498FA"/>
      <stop offset="0.34" stop-color="#5C5EFE"/>
      <stop offset="0.73" stop-color="#F44E90"/>
      <stop offset="1" stop-color="#FA8679"/>
    </linearGradient>
  </defs>
</svg>