<svg xmlns="http://www.w3.org/2000/svg" width="32" height="32" viewBox="0 0 32 32" fill="none">
<path d="M13.667 13.3733C13.667 14.0933 13.867 14.1999 14.3203 14.3599L15.0003 14.5999V12.3333H14.6003C14.0937 12.3333 13.667 12.7999 13.667 13.3733Z" fill="#F6892F"/>
<path d="M17 19.6666H17.4C17.92 19.6666 18.3333 19.1999 18.3333 18.6266C18.3333 17.9066 18.1333 17.7999 17.68 17.6399L17 17.3999V19.6666Z" fill="#F6892F"/>
<path d="M26.107 7.30675L23.3737 10.0401C23.1737 10.2401 22.9203 10.3334 22.667 10.3334C22.4137 10.3334 22.1603 10.2401 21.9603 10.0401C21.5737 9.65342 21.5737 9.01341 21.9603 8.62675L24.6937 5.89341C22.347 3.89341 19.3203 2.66675 16.0003 2.66675C8.64033 2.66675 2.66699 8.64008 2.66699 16.0001C2.66699 23.3601 8.64033 29.3334 16.0003 29.3334C23.3603 29.3334 29.3337 23.3601 29.3337 16.0001C29.3337 12.6801 28.107 9.65341 26.107 7.30675ZM18.3337 15.7601C19.187 16.0667 20.3337 16.6801 20.3337 18.6401C20.3337 20.3067 19.0137 21.6801 17.4003 21.6801H17.0003V22.0134C17.0003 22.5601 16.547 23.0134 16.0003 23.0134C15.4537 23.0134 15.0003 22.5601 15.0003 22.0134V21.6801H14.8937C13.1203 21.6801 11.667 20.1867 11.667 18.3467C11.667 17.7867 12.1203 17.3334 12.667 17.3334C13.2137 17.3334 13.667 17.7867 13.667 18.3334C13.667 19.0667 14.2137 19.6667 14.8937 19.6667H15.0003V16.7067L13.667 16.2401C12.8137 15.9334 11.667 15.3201 11.667 13.3601C11.667 11.6934 12.987 10.3201 14.6003 10.3201H15.0003V10.0001C15.0003 9.45341 15.4537 9.00008 16.0003 9.00008C16.547 9.00008 17.0003 9.45341 17.0003 10.0001V10.3334H17.107C18.8803 10.3334 20.3337 11.8267 20.3337 13.6667C20.3337 14.2134 19.8803 14.6667 19.3337 14.6667C18.787 14.6667 18.3337 14.2134 18.3337 13.6667C18.3337 12.9334 17.787 12.3334 17.107 12.3334H17.0003V15.2934L18.3337 15.7601Z" fill="#F6892F"/>
<path d="M30.2533 2.28008C30.1467 2.04008 29.96 1.84008 29.7067 1.73341C29.5867 1.69341 29.4667 1.66675 29.3333 1.66675H24C23.4533 1.66675 23 2.12008 23 2.66675C23 3.21341 23.4533 3.66675 24 3.66675H26.92L24.6933 5.89341C25.2 6.33342 25.6667 6.80008 26.1067 7.30675L28.3333 5.08008V8.00008C28.3333 8.54675 28.7867 9.00008 29.3333 9.00008C29.88 9.00008 30.3333 8.54675 30.3333 8.00008V2.66675C30.3333 2.53341 30.3067 2.41341 30.2533 2.28008Z" fill="#F6892F"/>
</svg>