<svg width="454" height="462" viewBox="0 0 454 462" fill="none" xmlns="http://www.w3.org/2000/svg">
<path d="M234.312 351.533C242.813 360.035 256.606 360.035 265.107 351.533C273.609 343.032 273.609 329.239 265.107 320.738C256.606 312.236 242.813 312.236 234.312 320.738C225.81 329.239 225.81 343.032 234.312 351.533Z" fill="#EBEBEB"/>
<path d="M257.635 323.207C257.712 324.225 257.402 325.277 256.827 326.162C256.262 327.059 255.41 327.778 254.458 328.254C253.484 328.719 252.299 328.885 251.259 328.531C250.229 328.199 249.366 327.513 248.823 326.66C249.642 327.247 250.539 327.657 251.436 327.812C251.89 327.889 252.332 327.9 252.775 327.812C253.218 327.756 253.639 327.59 254.048 327.402C254.247 327.302 254.458 327.192 254.657 327.07C254.845 326.937 255.044 326.826 255.221 326.671C255.598 326.406 255.919 326.063 256.229 325.719C256.838 325.011 257.314 324.159 257.635 323.196V323.207Z" fill="#C7C7C7"/>
<path d="M249.809 324.469C249.698 323.772 249.886 323.019 250.263 322.388C250.639 321.746 251.226 321.226 251.901 320.894C252.587 320.551 253.451 320.462 254.17 320.728C254.89 320.982 255.476 321.491 255.797 322.122C255.189 321.768 254.58 321.525 253.993 321.458C253.395 321.37 252.842 321.514 252.311 321.757C251.215 322.288 250.351 323.185 249.798 324.469H249.809Z" fill="#C7C7C7"/>
<path d="M249.71 346.364C249.987 346.995 249.987 347.748 249.765 348.434C249.544 349.12 249.09 349.762 248.503 350.194C247.906 350.659 247.097 350.891 246.356 350.77C245.625 350.659 244.972 350.294 244.529 349.762C245.182 349.961 245.813 350.061 246.389 350.028C246.976 349.995 247.474 349.773 247.917 349.43C248.382 349.076 248.768 348.644 249.067 348.135C249.366 347.615 249.576 347.028 249.687 346.353L249.71 346.364Z" fill="#C7C7C7"/>
<path d="M245.204 348.834C244.95 348.413 244.928 347.87 245.061 347.372C245.204 346.874 245.514 346.409 245.935 346.099C246.367 345.767 246.965 345.601 247.496 345.701C248.016 345.8 248.47 346.088 248.736 346.509C248.26 346.431 247.839 346.398 247.463 346.454C247.097 346.509 246.798 346.642 246.522 346.852C245.924 347.306 245.503 347.904 245.216 348.834H245.204Z" fill="#C7C7C7"/>
<path d="M241.861 326.771C242.238 327.114 242.459 327.623 242.481 328.166C242.492 328.719 242.271 329.295 241.861 329.704C241.441 330.147 240.799 330.324 240.267 330.247C239.736 330.18 239.249 329.959 238.895 329.594C239.393 329.594 239.847 329.594 240.245 329.505C240.644 329.427 240.953 329.284 241.175 329.04C241.418 328.785 241.618 328.464 241.728 328.099C241.839 327.723 241.872 327.28 241.85 326.782L241.861 326.771Z" fill="#C7C7C7"/>
<path d="M239.16 328.885C238.839 328.686 238.651 328.321 238.618 327.922C238.584 327.513 238.739 327.081 239.049 326.782C239.359 326.45 239.857 326.328 240.245 326.395C240.632 326.461 240.964 326.649 241.175 326.959C240.809 327.026 240.511 327.059 240.256 327.136C240.001 327.214 239.846 327.313 239.725 327.446C239.581 327.59 239.448 327.767 239.359 328C239.26 328.232 239.204 328.52 239.16 328.885Z" fill="#C7C7C7"/>
<path d="M256.994 349.729C256.761 350.183 256.318 350.526 255.787 350.67C255.256 350.825 254.647 350.747 254.149 350.448C253.617 350.149 253.296 349.563 253.23 349.031C253.163 348.5 253.263 347.98 253.529 347.548C253.662 348.035 253.772 348.478 253.949 348.843C254.127 349.209 254.337 349.474 254.636 349.64C254.935 349.817 255.3 349.928 255.687 349.939C256.086 349.961 256.518 349.873 256.994 349.729Z" fill="#C7C7C7"/>
<path d="M254.281 347.626C254.403 347.272 254.702 346.995 255.078 346.862C255.466 346.729 255.92 346.785 256.296 346.995C256.694 347.216 256.938 347.67 256.96 348.058C256.993 348.445 256.883 348.81 256.639 349.098C256.484 348.755 256.373 348.478 256.241 348.257C256.108 348.035 255.975 347.903 255.82 347.814C255.643 347.714 255.444 347.626 255.2 347.593C254.956 347.548 254.658 347.571 254.292 347.615L254.281 347.626Z" fill="#C7C7C7"/>
<path d="M264.454 334.408C264.509 334.918 264.343 335.438 263.989 335.87C263.635 336.29 263.081 336.578 262.506 336.611C261.897 336.667 261.299 336.357 260.956 335.958C260.602 335.549 260.391 335.062 260.369 334.563C260.746 334.895 261.089 335.194 261.443 335.394C261.797 335.604 262.118 335.693 262.45 335.67C262.804 335.648 263.159 335.538 263.491 335.327C263.834 335.117 264.144 334.807 264.454 334.419V334.408Z" fill="#C7C7C7"/>
<path d="M261.033 334.199C260.933 333.834 261.033 333.446 261.265 333.114C261.509 332.793 261.918 332.572 262.35 332.549C262.804 332.505 263.258 332.749 263.49 333.048C263.734 333.358 263.855 333.712 263.811 334.088C263.501 333.889 263.247 333.723 263.003 333.612C262.759 333.501 262.582 333.468 262.405 333.49C262.206 333.501 261.985 333.557 261.763 333.656C261.531 333.767 261.298 333.944 261.022 334.188L261.033 334.199Z" fill="#C7C7C7"/>
<path d="M235.607 339.335C235.662 339.844 235.495 340.365 235.141 340.796C234.787 341.217 234.235 341.505 233.659 341.538C233.05 341.593 232.452 341.283 232.109 340.885C231.755 340.475 231.545 339.988 231.522 339.49C231.899 339.822 232.242 340.121 232.596 340.32C232.95 340.531 233.27 340.619 233.602 340.597C233.957 340.575 234.311 340.464 234.643 340.254C234.986 340.044 235.297 339.734 235.607 339.346V339.335Z" fill="#C7C7C7"/>
<path d="M232.187 339.125C232.087 338.759 232.187 338.372 232.419 338.04C232.663 337.719 233.072 337.497 233.504 337.475C233.958 337.431 234.412 337.674 234.644 337.973C234.888 338.283 235.01 338.637 234.965 339.014C234.655 338.815 234.401 338.649 234.157 338.538C233.914 338.427 233.737 338.394 233.56 338.416C233.36 338.427 233.139 338.483 232.918 338.582C232.685 338.693 232.453 338.87 232.176 339.114L232.187 339.125Z" fill="#C7C7C7"/>
<g opacity="0.4">
<path d="M6.65455 255.183C6.70989 263.596 8.14894 272.053 11.3702 279.702C14.5694 287.318 19.6282 294.171 26.1814 298.421C27.8086 299.484 29.4912 300.403 31.2291 301.144C32.9781 301.875 34.7824 302.406 36.5867 302.783C40.2065 303.558 43.8817 303.535 47.4351 302.938C54.5639 301.698 61.1503 298.167 66.9618 293.517C67.3161 293.23 67.7146 292.92 68.0245 292.643L68.8547 291.857C69.3861 291.292 69.9174 290.772 70.4266 290.163C71.4561 289.001 72.4191 287.706 73.3157 286.3C75.109 283.522 76.7362 280.378 78.131 277.013C80.9759 270.282 83.1788 262.777 85.1824 255.062C89.1343 239.553 92.278 223.148 96.0196 206.477C96.9494 202.304 97.9457 198.119 98.9973 193.902C100.016 189.684 101.156 185.456 102.351 181.194C104.776 172.67 107.499 164.091 111.517 155.269C112.535 153.055 113.653 150.819 114.981 148.55C115.646 147.421 116.376 146.258 117.162 145.129C117.959 144.022 118.789 142.949 119.653 141.93C123.129 137.834 127.125 134.525 131.176 131.824C139.301 126.366 147.648 122.957 155.662 119.503C163.721 116.149 171.58 112.895 179.041 109.042C186.491 105.212 193.542 100.784 199.775 95.5263C206.029 90.3015 211.342 84.1357 215.427 77.3057C219.49 70.4426 222.456 62.9817 223.32 55.6979C223.751 52.067 223.707 48.5247 223.12 45.2592C222.512 41.9937 221.382 39.027 219.788 36.5585C216.623 31.5772 211.829 28.5662 206.416 27.4925C203.715 26.9279 200.848 26.8615 197.937 27.1604C195.026 27.5036 192.048 28.2231 189.103 29.33C188.362 29.6068 187.631 29.9167 186.901 30.2267L184.288 31.3669C182.561 32.1528 180.857 32.9498 179.174 33.8132C175.82 35.529 172.543 37.3887 169.311 39.4477C162.857 43.5324 156.515 48.4805 149.452 53.7828C142.434 59.0852 134.575 64.5425 126.073 69.1917C117.538 73.7745 108.528 77.5825 99.429 80.3831C98.2888 80.7705 97.1486 81.0583 96.0084 81.3904L92.9422 82.2649C91.2486 82.7631 89.5438 83.3055 87.8391 83.8922C84.4408 85.0766 81.0645 86.4492 77.799 87.9658C64.6926 94.0762 53.2577 102.644 45.0994 113.78C40.9704 119.326 37.4945 125.447 34.7271 132.189C33.3213 135.543 32.0926 139.052 31.0852 142.705C30.0226 146.336 29.2034 150.111 28.506 153.974C27.8308 157.837 27.3216 161.8 27.0005 165.829C26.8345 167.722 26.7127 170.191 26.5578 172.427C26.3696 174.707 26.1703 176.977 25.8936 179.235C24.8198 188.268 23.1373 197.123 20.868 205.702C18.6651 214.303 15.8977 222.617 13.1193 230.808C11.7134 234.904 10.3075 238.966 9.06772 243.029C7.85006 247.08 6.70989 251.209 6.65455 255.161V255.183ZM3.33366 255.217C3.30045 252.881 3.63254 250.645 4.01998 248.475C4.39635 246.294 4.91662 244.18 5.40368 242.066C6.39995 237.848 7.4737 233.697 8.35927 229.513C9.26697 225.34 10.0308 221.155 10.6064 216.96C11.182 212.765 11.503 208.547 11.6912 204.363C11.9901 195.972 11.4366 187.637 10.0972 179.511C9.78725 177.475 9.38874 175.46 8.99023 173.456C8.55852 171.408 8.11574 169.593 7.63974 167.213C6.72096 162.686 5.99037 158.047 5.58079 153.332C4.70629 143.912 4.98303 134.104 6.90915 124.307C8.82419 114.533 12.4108 104.803 17.6799 95.9691C22.938 87.1355 29.7015 79.1876 37.3285 72.4683C44.9776 65.738 53.4789 60.2143 62.4232 55.8639C66.8953 53.6721 71.4892 51.7903 76.1938 50.1741C78.5406 49.355 80.9317 48.6354 83.3781 47.9713L89.2891 46.3772C96.6394 44.2851 103.68 41.8276 110.443 38.6064C117.262 35.4737 123.815 31.544 130.877 27.0386C137.918 22.5554 145.522 17.4413 153.946 12.9581C158.142 10.722 162.503 8.61881 166.975 6.81447C169.211 5.90676 171.47 5.06547 173.728 4.26846L177.137 3.13936C178.432 2.75192 179.728 2.37554 181.056 2.04345C186.347 0.726176 191.915 0.0287909 197.583 0.261253C203.25 0.449436 209.007 1.5896 214.442 3.77032C219.866 5.96211 224.947 9.26085 229.098 13.4452C233.271 17.6073 236.492 22.6551 238.485 27.9796C240.511 33.293 241.341 38.8388 241.286 44.1301C241.252 49.4325 240.345 54.5245 238.895 59.2623C235.906 68.7489 231.113 76.9294 225.556 84.2575C222.788 87.9547 219.7 91.3752 216.49 94.6186C213.235 97.8288 209.815 100.818 206.25 103.596C191.982 114.699 175.776 122.016 161.131 130.562C153.836 134.79 146.862 139.428 141.593 144.753C138.98 147.432 136.855 150.266 135.349 153.166C134.973 153.896 134.63 154.627 134.32 155.358C134.021 156.077 133.744 156.808 133.468 157.616C132.914 159.21 132.427 160.959 131.973 162.774C131.077 166.416 130.379 170.346 129.77 174.353C129.106 178.36 128.597 182.467 128.032 186.607L126.394 199.16C125.852 203.378 125.276 207.628 124.623 211.901C122.011 228.948 118.69 246.339 112.48 263.663C109.314 272.308 105.462 280.964 99.9714 289.256C98.5656 291.315 97.1044 293.351 95.4772 295.344C93.8721 297.336 92.134 299.285 90.1858 301.111C88.2818 302.949 86.1898 304.698 83.9205 306.281C82.8135 307.089 81.5959 307.808 80.4003 308.517L78.5406 309.513C77.9429 309.823 77.4116 310.044 76.847 310.31C72.3749 312.347 67.6703 314.007 62.7665 315.048C57.8737 316.099 52.7927 316.531 47.7671 316.155C42.7415 315.812 37.7934 314.539 33.277 312.546C31.0188 311.539 28.8713 310.343 26.8788 308.971C24.8752 307.62 23.0044 306.115 21.2886 304.476C14.4365 297.89 10.0529 289.654 7.32979 281.23C4.60667 272.762 3.4665 263.984 3.31152 255.25L3.33366 255.217Z" fill="#EBEBEB" fill-opacity="0.2"/>
<path d="M89.0669 359.725C89.6425 363.068 89.8307 366.245 89.7421 369.312C89.6536 375.455 88.2699 381.079 86.7533 386.558C85.2147 392.049 83.3439 397.384 81.0082 402.532C78.6283 407.657 75.728 412.572 72.1193 417.077C68.4996 421.571 64.3374 425.789 59.3671 429.398C54.3747 432.94 48.1758 435.541 41.379 436.56C37.9917 437.058 34.4605 437.157 31.0179 436.77C27.5863 436.36 24.2654 435.486 21.3652 434.169C18.4428 432.873 15.9521 431.224 13.7935 429.475C11.6239 427.715 9.7531 425.855 7.93769 423.984C6.9857 422.944 6.13334 421.826 5.38061 420.619C4.67215 419.391 4.08546 418.095 3.57626 416.745C2.63534 414.044 2.03758 411.166 1.65015 408.232C0.875273 402.365 0.709229 396.089 1.45089 390.078C2.19256 384.067 4.05225 378.466 6.97463 373.684C9.89701 368.902 13.7271 364.84 18.2435 361.596C22.7378 358.32 28.018 355.973 33.1875 353.836C38.4345 351.755 43.5154 349.796 48.3418 347.516C53.2567 345.313 57.8395 342.7 63.7175 340.874C65.2008 340.431 66.7727 340.021 68.5328 339.833C70.2707 339.612 72.1857 339.568 74.2668 339.922C76.5029 340.298 79.1817 341.549 81.1521 343.276C81.6281 343.708 82.1373 344.173 82.5469 344.637C82.9565 345.102 83.366 345.578 83.7535 346.077C84.4287 347.017 85.104 348.036 85.58 348.977C86.1334 349.973 86.4987 350.859 86.9083 351.833C87.2404 352.718 87.6168 353.692 87.8492 354.545L88.2367 355.884L88.5577 357.179C88.768 358.054 88.9119 358.873 89.0669 359.725Z" fill="#EBEBEB"/>
</g>
<g opacity="0.4">
<path d="M401.761 173.899C427.785 153.686 453.965 157.616 453.965 157.616C453.965 157.616 454.087 184.083 430.331 206.92C410.295 226.192 391.256 225.096 384.691 217.525C378.138 209.942 379.799 190.946 401.761 173.888V173.899Z" fill="#EBEBEB"/>
<path d="M398.86 186.972C415.365 174.154 431.958 176.655 431.958 176.655C431.958 176.655 432.036 193.437 416.97 207.916C404.262 220.137 392.196 219.439 388.034 214.635C383.872 209.831 384.935 197.787 398.86 186.972Z" fill="white"/>
</g>
<path d="M410.804 193.892L408.834 192.32C408.269 191.866 408.181 191.047 408.624 190.483C409.078 189.918 409.897 189.83 410.461 190.272L412.432 191.844C412.996 192.298 413.085 193.117 412.642 193.682C412.188 194.246 411.369 194.335 410.804 193.892Z" fill="#EBEBEB"/>
<path d="M388.601 214.149L387.228 212.034C386.829 211.426 387.006 210.618 387.604 210.23C388.213 209.832 389.021 210.009 389.408 210.618L390.782 212.732C391.18 213.341 391.002 214.149 390.404 214.536C389.796 214.935 388.989 214.758 388.601 214.16V214.149Z" fill="#EBEBEB"/>
<path d="M401.562 189.862L400.212 189.817C399.492 189.795 398.928 189.198 398.95 188.467C398.972 187.747 399.57 187.183 400.3 187.205L401.651 187.249C402.37 187.271 402.935 187.869 402.913 188.6C402.891 189.319 402.293 189.884 401.562 189.862Z" fill="#EBEBEB"/>
<path d="M414.104 206.244L414.148 204.894C414.171 204.174 414.768 203.61 415.499 203.632C416.218 203.654 416.783 204.252 416.761 204.982L416.717 206.333C416.694 207.052 416.097 207.617 415.366 207.595C414.647 207.573 414.082 206.975 414.104 206.244Z" fill="#EBEBEB"/>
<path d="M385.235 206.644L385.08 205.294C385.003 204.574 385.512 203.932 386.231 203.855C386.951 203.777 387.593 204.286 387.67 205.006L387.825 206.356C387.903 207.076 387.394 207.718 386.674 207.795C385.955 207.873 385.313 207.364 385.235 206.644Z" fill="#EBEBEB"/>
<path d="M407.207 218.444L405.945 218.942C405.27 219.208 404.517 218.876 404.252 218.201C403.986 217.525 404.318 216.773 404.993 216.507L406.255 216.009C406.931 215.743 407.683 216.075 407.949 216.75C408.215 217.426 407.883 218.178 407.207 218.444Z" fill="#EBEBEB"/>
<path d="M402.679 218.563C410.948 217.639 416.904 210.187 415.98 201.918C415.057 193.649 407.605 187.694 399.336 188.617C391.067 189.54 385.112 196.992 386.035 205.261C386.958 213.53 394.41 219.486 402.679 218.563Z" fill="#EBEBEB"/>
<path d="M394.544 195.352C394.566 196.06 394.865 196.758 395.33 197.322C395.784 197.898 396.426 198.33 397.123 198.573C397.832 198.817 398.662 198.839 399.348 198.518C400.034 198.219 400.577 197.676 400.876 197.045C400.355 197.51 399.78 197.865 399.171 198.042C398.872 198.13 398.562 198.163 398.252 198.141C397.942 198.141 397.643 198.053 397.345 197.964C397.201 197.909 397.046 197.854 396.902 197.787C396.758 197.71 396.614 197.643 396.481 197.555C396.193 197.4 395.961 197.189 395.717 196.979C395.241 196.536 394.854 195.994 394.555 195.352H394.544Z" fill="#C7C7C7"/>
<path d="M400.024 195.607C400.046 195.12 399.858 194.621 399.548 194.212C399.238 193.802 398.795 193.481 398.308 193.315C397.81 193.138 397.212 193.138 396.736 193.382C396.26 193.614 395.895 194.002 395.718 194.466C396.105 194.179 396.504 193.968 396.913 193.869C397.312 193.769 397.71 193.813 398.087 193.946C398.884 194.223 399.548 194.776 400.024 195.618V195.607Z" fill="#C7C7C7"/>
<path d="M406.256 205.326C406.112 205.78 406.167 206.3 406.378 206.754C406.588 207.208 406.942 207.617 407.374 207.872C407.817 208.148 408.392 208.237 408.891 208.104C409.389 207.971 409.809 207.672 410.064 207.274C409.632 207.462 409.212 207.584 408.802 207.595C408.403 207.617 408.038 207.506 407.706 207.307C407.363 207.108 407.053 206.831 406.809 206.499C406.566 206.167 406.378 205.78 406.245 205.326H406.256Z" fill="#C7C7C7"/>
<path d="M409.543 206.676C409.687 206.366 409.665 205.989 409.543 205.657C409.411 205.325 409.156 205.037 408.846 204.849C408.525 204.65 408.104 204.583 407.739 204.694C407.385 204.805 407.097 205.037 406.953 205.347C407.274 205.259 407.562 205.203 407.828 205.214C408.082 205.214 408.304 205.292 408.514 205.414C408.957 205.679 409.3 206.056 409.566 206.676H409.543Z" fill="#C7C7C7"/>
<path d="M411.247 201.397C411.015 201.662 410.893 202.028 410.926 202.404C410.959 202.792 411.159 203.168 411.469 203.411C411.79 203.688 412.255 203.755 412.609 203.666C412.974 203.577 413.284 203.389 413.494 203.113C413.151 203.146 412.841 203.179 412.554 203.157C412.277 203.135 412.055 203.057 411.878 202.902C411.69 202.747 411.524 202.548 411.424 202.293C411.314 202.039 411.269 201.74 411.236 201.397H411.247Z" fill="#C7C7C7"/>
<path d="M413.274 202.636C413.473 202.47 413.584 202.215 413.573 201.928C413.573 201.64 413.418 201.363 413.185 201.175C412.942 200.965 412.588 200.92 412.333 200.998C412.067 201.075 411.857 201.23 411.735 201.463C411.99 201.474 412.2 201.485 412.377 201.518C412.554 201.551 412.665 201.607 412.765 201.684C412.876 201.773 412.975 201.883 413.053 202.038C413.141 202.193 413.197 202.382 413.263 202.636H413.274Z" fill="#C7C7C7"/>
<path d="M390.238 199.26C390.238 199.615 390.393 199.958 390.67 200.223C390.947 200.489 391.345 200.644 391.744 200.622C392.164 200.622 392.552 200.356 392.762 200.057C392.972 199.747 393.083 199.404 393.061 199.05C392.829 199.305 392.618 199.537 392.386 199.703C392.164 199.869 391.943 199.958 391.711 199.969C391.467 199.98 391.212 199.936 390.969 199.814C390.725 199.703 390.482 199.504 390.238 199.26Z" fill="#C7C7C7"/>
<path d="M392.575 198.851C392.619 198.596 392.52 198.33 392.332 198.131C392.132 197.932 391.845 197.81 391.546 197.821C391.225 197.821 390.937 198.032 390.793 198.253C390.649 198.485 390.594 198.74 390.649 198.995C390.848 198.84 391.014 198.696 391.169 198.607C391.324 198.519 391.446 198.474 391.568 198.474C391.712 198.474 391.856 198.474 392.022 198.541C392.188 198.596 392.365 198.696 392.575 198.851Z" fill="#C7C7C7"/>
<path d="M399.769 208.493C398.186 209.423 396.149 208.892 395.22 207.298C394.29 205.704 394.81 203.667 396.393 202.737C397.976 201.807 400.013 202.339 400.943 203.933C401.872 205.527 401.352 207.563 399.769 208.493Z" fill="#DBDBDB"/>
<path d="M396.349 204.23C395.486 204.739 394.965 205.603 394.877 206.532C394.467 205.104 395.043 203.522 396.382 202.736C397.965 201.806 400.002 202.348 400.932 203.931C401.607 205.082 401.519 206.455 400.832 207.484C400.987 206.765 400.888 205.99 400.478 205.315C399.637 203.876 397.777 203.389 396.338 204.23H396.349Z" fill="#C7C7C7"/>
<path d="M393.57 206.688C393.637 207.551 394.013 208.392 394.578 209.079C395.142 209.776 395.928 210.285 396.769 210.595C397.622 210.894 398.629 210.927 399.459 210.54C400.301 210.175 400.965 209.533 401.374 208.78C400.754 209.367 400.046 209.832 399.282 210.064C399.094 210.13 398.895 210.153 398.707 210.186C398.507 210.186 398.319 210.23 398.131 210.208C397.744 210.208 397.367 210.108 396.991 209.987C396.803 209.92 396.614 209.843 396.437 209.765C396.26 209.665 396.083 209.588 395.917 209.477C395.563 209.278 395.264 209.012 394.965 208.747C394.389 208.182 393.902 207.496 393.581 206.699L393.57 206.688Z" fill="#C7C7C7"/>
<path d="M390.084 208.348C389.442 208.581 388.733 208.238 388.501 207.585C388.268 206.932 388.611 206.223 389.253 206.002C389.895 205.769 390.604 206.112 390.836 206.766C391.069 207.419 390.726 208.127 390.084 208.348Z" fill="#DBDBDB"/>
<path d="M389.131 206.544C388.777 206.666 388.533 206.954 388.434 207.286C388.389 206.732 388.711 206.19 389.253 206.002C389.895 205.769 390.603 206.112 390.836 206.766C391.002 207.23 390.869 207.729 390.548 208.061C390.659 207.806 390.67 207.518 390.57 207.242C390.36 206.655 389.718 206.345 389.131 206.555V206.544Z" fill="#C7C7C7"/>
<path d="M387.936 207.242C387.881 207.563 387.947 207.906 388.113 208.205C388.268 208.504 388.522 208.758 388.809 208.935C389.108 209.113 389.486 209.19 389.829 209.101C390.172 209.024 390.459 208.825 390.647 208.559C390.37 208.714 390.071 208.825 389.784 208.847C389.496 208.869 389.22 208.792 388.977 208.648C388.467 208.349 388.102 207.862 387.936 207.231V207.242Z" fill="#C7C7C7"/>
<path d="M399.48 215.41C398.517 215.565 397.609 214.923 397.455 213.949C397.288 212.986 397.942 212.078 398.905 211.912C399.868 211.746 400.775 212.399 400.93 213.373C401.096 214.336 400.443 215.244 399.48 215.41Z" fill="#DBDBDB"/>
<path d="M398.596 212.653C398.076 212.742 397.655 213.074 397.434 213.517C397.5 212.731 398.087 212.056 398.895 211.923C399.858 211.768 400.766 212.41 400.921 213.384C401.031 214.081 400.732 214.745 400.19 215.122C400.4 214.801 400.5 214.391 400.433 213.982C400.29 213.107 399.459 212.52 398.596 212.664V212.653Z" fill="#C7C7C7"/>
<path d="M396.747 213.34C396.625 213.783 396.647 214.27 396.802 214.713C396.957 215.167 397.245 215.565 397.599 215.875C397.965 216.185 398.452 216.384 398.939 216.362C399.426 216.351 399.869 216.152 400.223 215.864C399.813 216.052 399.371 216.141 398.95 216.107C398.529 216.085 398.142 215.897 397.821 215.631C397.5 215.355 397.234 215.012 397.046 214.624C396.869 214.237 396.758 213.805 396.758 213.351L396.747 213.34Z" fill="#C7C7C7"/>
<path d="M405.403 197.566C406.333 198.684 408.115 198.75 409.377 197.698C410.639 196.647 410.915 194.887 409.997 193.769C409.067 192.651 407.285 192.584 406.023 193.636C404.75 194.687 404.484 196.448 405.403 197.566Z" fill="#DBDBDB"/>
<path d="M409.521 194.975C410.03 195.584 410.141 196.403 409.897 197.167C410.705 196.127 410.783 194.721 409.997 193.769C409.067 192.651 407.285 192.584 406.023 193.636C405.104 194.389 404.705 195.518 404.905 196.503C405.026 195.894 405.37 195.296 405.912 194.842C407.063 193.89 408.679 193.946 409.521 194.964V194.975Z" fill="#C7C7C7"/>
<path d="M404.22 195.673C403.888 196.315 403.821 197.112 404.076 197.854C404.187 198.23 404.419 198.562 404.685 198.85C404.951 199.138 405.271 199.348 405.626 199.536C405.991 199.68 406.39 199.78 406.777 199.791C407.164 199.791 407.552 199.747 407.906 199.636C408.626 199.426 409.268 199.049 409.788 198.551C409.124 198.817 408.46 199.027 407.784 199.138C407.12 199.238 406.456 199.204 405.891 198.95C405.615 198.817 405.338 198.64 405.117 198.418C404.884 198.208 404.685 197.953 404.541 197.666C404.253 197.09 404.153 196.393 404.22 195.684V195.673Z" fill="#C7C7C7"/>
<path d="M26.2469 344.582L34.7705 336.059C37.2059 333.623 37.2059 329.66 34.7705 327.225C32.3352 324.79 28.3723 324.79 25.937 327.225L17.4134 335.749C14.9781 338.184 14.9781 342.147 17.4134 344.582C19.8487 347.029 23.8116 347.029 26.2469 344.582Z" fill="#EBEBEB"/>
<path d="M142.677 429.075L148.09 418.304C149.64 415.216 148.389 411.463 145.312 409.914C142.224 408.364 138.471 409.615 136.921 412.692L131.508 423.463C129.958 426.551 131.209 430.304 134.287 431.854C137.375 433.403 141.128 432.153 142.677 429.075Z" fill="#EBEBEB"/>
<path d="M68.0461 320.505L74.4554 319.586C77.8759 319.099 80.2448 315.933 79.7578 312.513C79.2707 309.092 76.1048 306.723 72.6843 307.21L66.275 308.129C62.8545 308.616 60.4856 311.782 60.9726 315.203C61.4597 318.623 64.6256 320.992 68.0461 320.505Z" fill="#EBEBEB"/>
<path d="M17.1813 405.1L16.2625 398.69C15.7755 395.27 12.6096 392.901 9.18905 393.388C5.76854 393.875 3.39964 397.041 3.88671 400.461L4.80549 406.871C5.29255 410.291 8.45846 412.66 11.879 412.173C15.2995 411.686 17.6684 408.52 17.1813 405.1Z" fill="#EBEBEB"/>
<path d="M154.632 395.435V381.244C154.632 379.923 153.562 378.853 152.241 378.853H144.526C143.205 378.853 142.135 379.923 142.135 381.244V395.435C142.135 396.756 143.205 397.826 144.526 397.826H152.241C153.562 397.826 154.632 396.756 154.632 395.435Z" fill="#EBEBEB"/>
<path d="M56.4459 459.418L62.7003 461.09C66.0322 461.987 69.4638 460.005 70.3494 456.673C71.246 453.341 69.2645 449.91 65.9326 449.024L59.6782 447.353C56.3463 446.456 52.9147 448.437 52.0291 451.769C51.1325 455.101 53.114 458.533 56.4459 459.418Z" fill="#EBEBEB"/>
<path d="M78.1084 457.746C117.932 457.746 150.216 425.463 150.216 385.639C150.216 345.815 117.932 313.531 78.1084 313.531C38.2846 313.531 6.00098 345.815 6.00098 385.639C6.00098 425.463 38.2846 457.746 78.1084 457.746Z" fill="#EBEBEB"/>
<path d="M104.332 342.867C104.586 346.232 103.546 349.708 101.664 352.652C99.793 355.63 96.9813 358.01 93.8264 359.571C90.6052 361.109 86.6644 361.652 83.2328 360.478C79.8123 359.394 76.9564 357.124 75.1631 354.279C77.8862 356.206 80.8307 357.589 83.8195 358.087C85.3139 358.331 86.7972 358.364 88.2474 358.087C89.7086 357.921 91.0923 357.357 92.4427 356.737C93.118 356.394 93.8043 356.04 94.4574 355.652C95.0884 355.22 95.7526 354.833 96.3282 354.346C97.5901 353.471 98.6307 352.342 99.6823 351.202C101.686 348.844 103.28 346.033 104.32 342.867H104.332Z" fill="#C7C7C7"/>
<path d="M78.4178 347.007C78.0415 344.682 78.6614 342.214 79.9122 340.111C81.1742 337.996 83.1113 336.258 85.3363 335.174C87.6056 334.055 90.4616 333.746 92.8526 334.631C95.2436 335.461 97.1808 337.144 98.2546 339.236C96.251 338.074 94.2363 337.266 92.2659 337.022C90.2955 336.745 88.458 337.199 86.709 338.007C83.0781 339.756 80.2333 342.745 78.3957 347.007H78.4178Z" fill="#C7C7C7"/>
<path d="M53.9867 396.543C54.9165 398.635 54.9054 401.126 54.1749 403.417C53.4332 405.698 51.9499 407.801 50.0127 409.251C48.0534 410.79 45.3524 411.554 42.9171 411.166C40.4817 410.801 38.3232 409.605 36.873 407.845C39.0316 408.498 41.1127 408.831 43.0278 408.709C44.9539 408.587 46.6254 407.856 48.0976 406.749C49.6363 405.598 50.9315 404.137 51.9277 402.443C52.9018 400.728 53.6103 398.768 53.9867 396.543Z" fill="#C7C7C7"/>
<path d="M39.0657 404.724C38.2244 403.318 38.1358 401.536 38.5675 399.886C39.0324 398.237 40.0841 396.709 41.4678 395.669C42.8847 394.551 44.8773 394.008 46.6263 394.363C48.3642 394.706 49.8474 395.647 50.7219 397.019C49.1389 396.754 47.7332 396.654 46.5156 396.831C45.2868 396.997 44.3127 397.473 43.3829 398.16C41.4235 399.665 40.0066 401.647 39.0657 404.702V404.724Z" fill="#C7C7C7"/>
<path d="M28.1296 380.492C29.3915 381.61 30.1221 383.303 30.1886 385.119C30.2328 386.956 29.5022 388.849 28.1518 390.211C26.7791 391.683 24.6205 392.248 22.8715 392.015C21.0893 391.805 19.5175 391.052 18.333 389.846C19.9934 389.823 21.4989 389.823 22.8162 389.536C24.1335 389.27 25.1519 388.783 25.9157 387.986C26.7348 387.156 27.3879 386.093 27.7422 384.853C28.1296 383.602 28.2071 382.141 28.1407 380.481L28.1296 380.492Z" fill="#C7C7C7"/>
<path d="M19.1962 387.499C18.1446 386.824 17.5136 385.64 17.4029 384.311C17.3033 382.961 17.8125 381.544 18.8309 380.525C19.8714 379.407 21.5208 379.02 22.7717 379.252C24.0557 379.474 25.1406 380.105 25.8712 381.123C24.6646 381.334 23.6572 381.455 22.827 381.721C21.9968 381.976 21.4876 382.297 21.0669 382.728C20.591 383.204 20.1703 383.802 19.8604 384.544C19.5283 385.307 19.3401 386.271 19.1962 387.477V387.499Z" fill="#C7C7C7"/>
<path d="M126.935 359.138C127.134 360.82 126.559 362.558 125.396 363.964C124.212 365.37 122.407 366.3 120.481 366.41C118.467 366.599 116.485 365.58 115.334 364.252C114.15 362.912 113.474 361.296 113.386 359.614C114.637 360.71 115.766 361.695 116.939 362.359C118.101 363.045 119.186 363.355 120.282 363.256C121.444 363.178 122.64 362.813 123.725 362.126C124.843 361.44 125.883 360.411 126.935 359.115V359.138Z" fill="#C7C7C7"/>
<path d="M115.601 358.43C115.269 357.224 115.579 355.929 116.387 354.855C117.206 353.781 118.535 353.062 119.963 352.973C121.479 352.829 122.974 353.637 123.759 354.644C124.568 355.663 124.955 356.858 124.833 358.098C123.793 357.445 122.951 356.869 122.154 356.526C121.357 356.161 120.771 356.061 120.173 356.117C119.498 356.161 118.789 356.327 118.059 356.67C117.306 357.024 116.531 357.611 115.612 358.43H115.601Z" fill="#C7C7C7"/>
<path d="M86.5109 408.121C94.5253 411.697 103.934 408.066 107.532 400.007C111.13 391.949 107.532 382.517 99.5287 378.942C91.5143 375.366 82.1052 378.997 78.5075 387.056C74.9099 395.115 78.5075 404.546 86.5109 408.121Z" fill="#DBDBDB"/>
<path d="M100.491 386.027C104.852 387.975 107.786 391.838 108.705 396.2C109.911 389.182 106.314 381.964 99.5279 378.942C91.5135 375.367 82.1043 379.009 78.5067 387.056C75.9164 392.868 77.0455 399.388 80.8977 403.915C79.7686 400.594 79.8572 396.864 81.4069 393.388C84.6614 386.082 93.2182 382.783 100.491 386.027Z" fill="#C7C7C7"/>
<path d="M115.047 396.211C115.213 400.351 113.863 404.558 111.527 408.122C109.202 411.72 105.771 414.598 101.919 416.513C98 418.384 93.2511 419.059 89.0779 417.675C84.9046 416.402 81.3734 413.701 79.0488 410.303C82.3033 412.793 85.9341 414.598 89.6646 415.295C90.5944 415.483 91.5354 415.517 92.4652 415.594C93.395 415.539 94.3249 415.594 95.2437 415.373C97.0923 415.173 98.8413 414.465 100.546 413.69C101.387 413.258 102.251 412.805 103.07 412.317C103.856 411.775 104.686 411.288 105.417 410.668C106.989 409.55 108.284 408.133 109.568 406.683C112.036 403.705 113.929 400.152 115.07 396.211H115.047Z" fill="#C7C7C7"/>
<path d="M132.504 402.276C135.692 403.018 138.88 401.014 139.622 397.804C140.364 394.594 138.382 391.395 135.194 390.664C132.006 389.923 128.818 391.926 128.076 395.136C127.335 398.347 129.316 401.546 132.504 402.276Z" fill="#DBDBDB"/>
<path d="M136.046 393.188C137.784 393.587 139.134 394.793 139.776 396.332C139.721 393.675 137.883 391.295 135.182 390.664C131.994 389.923 128.806 391.926 128.065 395.136C127.533 397.45 128.408 399.752 130.146 401.136C129.493 399.996 129.26 398.623 129.581 397.24C130.256 394.328 133.146 392.513 136.046 393.188Z" fill="#C7C7C7"/>
<path d="M142.112 395.889C142.544 397.383 142.4 399.066 141.814 400.571C141.238 402.099 140.164 403.427 138.869 404.424C137.541 405.409 135.781 406.007 134.12 405.763C132.471 405.564 130.976 404.767 129.925 403.627C131.342 404.235 132.792 404.59 134.176 404.545C135.559 404.512 136.832 403.992 137.917 403.173C140.164 401.501 141.67 398.955 142.101 395.9L142.112 395.889Z" fill="#C7C7C7"/>
<path d="M91.6018 440.865C96.251 441.108 100.214 437.533 100.468 432.861C100.723 428.19 97.1587 424.205 92.5095 423.95C87.8602 423.707 83.8973 427.282 83.6427 431.954C83.3881 436.625 86.9525 440.61 91.6018 440.865Z" fill="#DBDBDB"/>
<path d="M94.3241 427.283C96.859 427.416 99.0397 428.777 100.324 430.759C99.5932 427.051 96.4384 424.172 92.5087 423.962C87.8705 423.719 83.8965 427.305 83.6419 431.965C83.4648 435.331 85.2581 438.342 88.0255 439.858C86.841 438.43 86.1658 436.559 86.2765 434.545C86.4979 430.316 90.1066 427.062 94.3241 427.283Z" fill="#C7C7C7"/>
<path d="M103.468 429.563C104.287 431.589 104.442 433.913 103.944 436.116C103.468 438.33 102.317 440.4 100.778 442.072C99.1949 443.732 96.992 444.972 94.6674 445.083C92.365 445.26 90.1178 444.573 88.3135 443.367C90.3835 444.02 92.531 444.208 94.5235 443.854C96.5161 443.511 98.2651 442.448 99.6377 440.987C101.044 439.504 102.106 437.732 102.77 435.784C103.412 433.836 103.7 431.711 103.468 429.552V429.563Z" fill="#C7C7C7"/>
<path d="M53.8767 359.194C50.0687 365.027 41.6337 366.267 35.0362 361.961C28.4498 357.655 26.1916 349.43 30.0106 343.597C33.8185 337.763 42.2536 336.523 48.8511 340.829C55.4375 345.135 57.6957 353.36 53.8767 359.194Z" fill="#DBDBDB"/>
<path d="M32.9111 349.054C30.83 352.231 30.7304 356.194 32.2912 359.692C27.8965 355.154 26.7785 348.512 30.0108 343.575C33.8188 337.741 42.2649 336.501 48.8513 340.807C53.6002 343.918 56.1019 349.054 55.6813 353.87C54.7957 351.025 52.8474 348.39 50.0136 346.53C44.0471 342.623 36.3759 343.752 32.9221 349.043L32.9111 349.054Z" fill="#C7C7C7"/>
<path d="M58.5261 349.552C60.4301 352.43 61.1828 356.205 60.3858 359.836C60.0426 361.673 59.1239 363.378 58.039 364.883C56.9431 366.422 55.493 367.595 53.9101 368.68C52.2386 369.577 50.4342 370.263 48.5856 370.485C46.748 370.673 44.8994 370.695 43.1504 370.33C39.6303 369.699 36.3537 368.282 33.6084 366.19C36.9182 367.097 40.2059 367.762 43.4161 367.883C46.6263 368.016 49.7479 367.485 52.2939 365.979C53.5116 365.193 54.7624 364.23 55.7033 363.046C56.7107 361.917 57.4966 360.599 58.028 359.16C59.0796 356.271 59.2013 352.917 58.515 349.552H58.5261Z" fill="#C7C7C7"/>
<path d="M381.161 343.685L387.26 344.815L388.622 351.246L389.984 344.815L396.083 343.685L390.017 342.202L388.622 336.136L387.238 342.202L381.161 343.685Z" fill="#C7C7C7"/>
<path d="M129.57 308.983L135.67 310.112L137.031 316.543L138.393 310.112L144.492 308.983L138.415 307.499L137.031 301.422L135.636 307.499L129.57 308.983Z" fill="#C7C7C7"/>
<path d="M318.872 240.273L324.971 241.391L326.333 247.822L327.706 241.391L333.794 240.262L327.728 238.779L326.333 232.712L324.949 238.779L318.872 240.273Z" fill="#C7C7C7"/>
<path d="M439.121 305.85L442.531 306.481L443.294 310.079L444.058 306.481L447.468 305.85L444.069 305.02L443.294 301.621L442.519 305.02L439.121 305.85Z" fill="#C7C7C7"/>
<path d="M180.491 442.559L183.901 443.19L184.664 446.788L185.417 443.19L188.827 442.559L185.439 441.729L184.664 438.33L183.89 441.729L180.491 442.559Z" fill="#C7C7C7"/>
<path d="M430.786 144.122L434.196 144.753L434.959 148.351L435.723 144.753L439.133 144.122L435.734 143.292L434.959 139.905L434.185 143.292L430.786 144.122Z" fill="#C7C7C7"/>
<path d="M28.749 221.41L32.1585 222.03L32.9223 225.628L33.6861 222.03L37.0955 221.399L33.6971 220.569L32.9223 217.182L32.1474 220.569L28.749 221.41Z" fill="#C7C7C7"/>
<path d="M47.0361 404.27L50.4456 404.901L51.2094 408.487L51.9732 404.901L55.3826 404.27L51.9842 403.44L51.2094 400.041L50.4345 403.44L47.0361 404.27Z" fill="#C7C7C7"/>
<path d="M417.636 235.137L421.045 235.768L421.809 239.355L422.573 235.768L425.982 235.126L422.584 234.307L421.809 230.908L421.034 234.307L417.636 235.137Z" fill="#C7C7C7"/>
<path d="M273.874 351.245L277.283 351.876L278.047 355.463L278.811 351.876L282.221 351.245L278.822 350.415L278.047 347.017L277.272 350.415L273.874 351.245Z" fill="#C7C7C7"/>
<path d="M149.85 62.7493L153.259 63.3803L154.023 66.9669L154.787 63.3803L158.196 62.7383L154.798 61.9191L154.023 58.5208L153.248 61.9191L149.85 62.7493Z" fill="#C7C7C7"/>
<path d="M283.284 338.196L286.694 338.827L287.446 342.413L288.21 338.827L291.62 338.196L288.232 337.365L287.446 333.967L286.671 337.365L283.284 338.196Z" fill="#C7C7C7"/>
<path d="M172.432 450.329C173.705 450.329 173.705 452.3 172.432 452.3C171.159 452.3 171.159 450.329 172.432 450.329Z" fill="#C7C7C7"/>
<path d="M348.66 265.035C349.933 265.035 349.933 267.006 348.66 267.006C347.387 267.006 347.387 265.035 348.66 265.035Z" fill="#C7C7C7"/>
<path d="M264.377 348.29C265.65 348.29 265.65 350.261 264.377 350.261C263.104 350.261 263.104 348.29 264.377 348.29Z" fill="#C7C7C7"/>
<path d="M117.838 442.913C119.111 442.913 119.111 444.884 117.838 444.884C116.565 444.884 116.565 442.913 117.838 442.913Z" fill="#C7C7C7"/>
<path d="M447.645 456.008C448.918 456.008 448.918 457.978 447.645 457.978C446.372 457.978 446.372 456.008 447.645 456.008Z" fill="#C7C7C7"/>
<path d="M395.674 277.988C396.947 277.988 396.947 279.969 395.674 279.969C394.4 279.969 394.4 277.988 395.674 277.988Z" fill="#C7C7C7"/>
<path d="M197.173 432.562C198.07 432.562 198.07 433.957 197.173 433.957C196.277 433.957 196.277 432.562 197.173 432.562Z" fill="#C7C7C7"/>
<path d="M57.607 69.6682C58.5037 69.6682 58.5037 71.063 57.607 71.063C56.7104 71.063 56.7104 69.6682 57.607 69.6682Z" fill="#C7C7C7"/>
<path d="M327.163 294.304C328.059 294.304 328.059 295.699 327.163 295.699C326.266 295.699 326.266 294.304 327.163 294.304Z" fill="#C7C7C7"/>
<path d="M293.401 354.766C294.298 354.766 294.298 356.161 293.401 356.161C292.504 356.161 292.504 354.766 293.401 354.766Z" fill="#C7C7C7"/>
<path d="M238.109 342.988C239.006 342.988 239.006 344.382 238.109 344.382C237.212 344.382 237.212 342.988 238.109 342.988Z" fill="#C7C7C7"/>
<path d="M303.464 281.596C305.899 281.596 305.91 285.382 303.464 285.382C301.017 285.382 301.017 281.596 303.464 281.596Z" fill="#C7C7C7"/>
<path d="M206.527 90.3127L212.627 91.4308L213.988 97.8622L215.35 91.4308L221.449 90.3017L215.383 88.8183L213.988 82.7522L212.605 88.8183L206.527 90.3127Z" fill="#C7C7C7"/>
<path d="M229.762 34.6553L233.171 35.2862L233.935 38.8839L234.699 35.2862L238.108 34.6553L234.71 33.825L233.935 30.4377L233.16 33.825L229.762 34.6553Z" fill="#C7C7C7"/>
<path d="M23.1589 126.875C24.4319 126.875 24.4319 128.846 23.1589 128.846C21.8859 128.846 21.8859 126.875 23.1589 126.875Z" fill="#C7C7C7"/>
<path d="M38.6891 388.894C39.9621 388.894 39.9621 390.864 38.6891 390.864C37.4161 390.864 37.4161 388.894 38.6891 388.894Z" fill="#C7C7C7"/>
<path d="M11.9342 437.899C13.2073 437.899 13.2073 439.869 11.9342 439.869C10.6612 439.869 10.6612 437.899 11.9342 437.899Z" fill="#C7C7C7"/>
<path d="M62.5221 209.699C63.7951 209.699 63.7951 211.67 62.5221 211.67C61.2491 211.67 61.2491 209.699 62.5221 209.699Z" fill="#C7C7C7"/>
<path d="M11.9342 39.1711C13.2073 39.1711 13.2073 41.1415 11.9342 41.1415C10.6612 41.1415 10.6612 39.1711 11.9342 39.1711Z" fill="#C7C7C7"/>
<path d="M101.609 341.792C102.506 341.792 102.506 343.187 101.609 343.187C100.712 343.187 100.712 341.792 101.609 341.792Z" fill="#C7C7C7"/>
<path d="M249.034 431.378C249.93 431.378 249.93 432.773 249.034 432.773C248.137 432.773 248.137 431.378 249.034 431.378Z" fill="#C7C7C7"/>
<path d="M352.835 111.633C353.731 111.633 353.731 113.028 352.835 113.028C351.938 113.028 351.938 111.633 352.835 111.633Z" fill="#C7C7C7"/>
<path d="M226.585 68.8372C227.481 68.8372 227.481 70.2319 226.585 70.2319C225.688 70.2319 225.688 68.8372 226.585 68.8372Z" fill="#C7C7C7"/>
<path d="M184.665 316.963C187.1 316.963 187.111 320.749 184.665 320.749C182.218 320.749 182.218 316.963 184.665 316.963Z" fill="#C7C7C7"/>
<path d="M434.118 173.866C436.553 173.866 436.564 177.652 434.118 177.652C431.672 177.652 431.672 173.866 434.118 173.866Z" fill="#C7C7C7"/>
<path d="M46.5594 339.899C48.9947 339.899 49.0058 343.684 46.5594 343.684C44.113 343.684 44.113 339.899 46.5594 339.899Z" fill="#C7C7C7"/>
<path d="M205.651 267.017L209.061 267.648L209.825 271.234L210.577 267.648L213.987 267.017L210.599 266.187L209.825 262.788L209.039 266.187L205.651 267.017Z" fill="#C7C7C7"/>
<path d="M278.048 438.884L281.457 439.515L282.221 443.112L282.985 439.515L286.394 438.884L282.996 438.054L282.221 434.666L281.446 438.054L278.048 438.884Z" fill="#C7C7C7"/>
<path d="M293.147 394.627C294.42 394.627 294.42 396.598 293.147 396.598C291.874 396.598 291.874 394.627 293.147 394.627Z" fill="#C7C7C7"/>
<path d="M331.646 368.348C332.919 368.348 332.919 370.318 331.646 370.318C330.373 370.318 330.373 368.348 331.646 368.348Z" fill="#C7C7C7"/>
<path d="M209.825 413.723L213.224 414.354L213.987 417.94L214.751 414.354L218.161 413.723L214.762 412.893L213.987 409.494L213.212 412.893L209.825 413.723Z" fill="#C7C7C7"/>
<path d="M350.122 95.5276C351.395 95.5276 351.395 97.498 350.122 97.498C348.849 97.498 348.849 95.5276 350.122 95.5276Z" fill="#C7C7C7"/>
<path d="M373.878 371.47C374.774 371.47 374.774 372.865 373.878 372.865C372.981 372.865 372.981 371.47 373.878 371.47Z" fill="#C7C7C7"/>
<path d="M76.4922 252.648L79.9016 253.279L80.6654 256.865L81.4292 253.279L84.8387 252.637L81.4403 251.818L80.6654 248.419L79.8906 251.818L76.4922 252.648Z" fill="#C7C7C7"/>
<path d="M37.0954 307.011C38.3684 307.011 38.3684 308.981 37.0954 308.981C35.8224 308.981 35.8224 307.011 37.0954 307.011Z" fill="#C7C7C7"/>
<path d="M173.384 234.251C174.657 234.251 174.657 236.222 173.384 236.222C172.111 236.222 172.111 234.251 173.384 234.251Z" fill="#C7C7C7"/>
<path d="M57.607 134.436C58.5037 134.436 58.5037 135.831 57.607 135.831C56.7104 135.831 56.7104 134.436 57.607 134.436Z" fill="#C7C7C7"/>
<path d="M48.6639 128.016C51.0992 128.016 51.1103 131.802 48.6639 131.802C46.2175 131.802 46.2175 128.016 48.6639 128.016Z" fill="#C7C7C7"/>
<path d="M435.956 44.3967C438.391 44.3967 438.402 48.1825 435.956 48.1825C433.509 48.1825 433.509 44.3967 435.956 44.3967Z" fill="#C7C7C7"/>
<path d="M388.429 426.273C402.92 412.598 403.582 389.766 389.907 375.275C376.233 360.785 353.401 360.123 338.91 373.797C324.419 387.472 323.757 410.304 337.432 424.795C351.106 439.285 373.938 439.947 388.429 426.273Z" fill="#E53E3E"/>
<path d="M330.097 413.291C331.725 411.597 335.079 408.453 340.757 405.387C347.632 401.668 366.749 396.675 375.35 391.417C387.46 384.034 388.479 377.049 388.124 373.518C384.671 370.341 380.674 367.905 376.368 366.3C375.76 370.009 373.302 381.621 352.934 390.709C342.429 395.391 331.857 393.675 328.282 393.1C326.976 399.708 327.507 406.715 330.108 413.302L330.097 413.291Z" fill="#FC8181"/>
<path d="M346.359 431.722C356.797 437.423 369.826 437.832 381.029 431.689C384.958 429.53 388.324 426.752 391.069 423.542C389.597 422.844 386.63 421.859 384.405 421.505C374.553 419.933 364.28 425.412 360.561 427.914C354.617 431.91 349.237 432.032 346.348 431.722H346.359Z" fill="#FC8181"/>
<path d="M332.675 418.516C332.841 418.804 333.007 419.08 333.184 419.357C333.339 419.612 333.505 419.855 333.671 420.11C334.047 420.674 334.424 421.217 334.833 421.748C335.199 422.224 335.564 422.7 335.951 423.154C336.095 423.331 336.239 423.486 336.383 423.663C336.549 423.851 336.715 424.039 336.881 424.228C337.047 424.416 337.224 424.604 337.39 424.781C337.59 424.991 337.8 425.213 338.01 425.423C338.221 425.634 338.431 425.844 338.641 426.043C338.83 426.22 339.007 426.397 339.195 426.563C339.604 426.94 340.014 427.305 340.446 427.659C342.737 428.168 345.715 427.626 349.966 425.545C356.286 422.457 362.84 415.726 375.094 410.169C386.672 404.922 396.768 406.494 399.148 406.66C400.476 399.542 399.679 391.993 396.469 385.008C394.167 385.108 386.849 386.757 372.149 401.037C366.559 406.461 361.567 410.38 357.15 413.169C344.254 421.316 336.295 419.844 332.907 418.471C332.83 418.471 332.752 418.494 332.675 418.505V418.516Z" fill="#FC8181"/>
<path d="M365.388 379.207C366.163 380.613 368.443 380.846 370.48 379.716C372.528 378.598 373.557 376.55 372.782 375.145C372.007 373.739 369.727 373.506 367.69 374.635C365.642 375.753 364.613 377.801 365.388 379.207Z" fill="#F56565"/>
<path d="M375.781 380.835C376.212 381.632 377.563 381.721 378.792 381.045C380.02 380.37 380.662 379.186 380.22 378.389C379.788 377.592 378.437 377.503 377.209 378.178C375.98 378.854 375.338 380.038 375.781 380.835Z" fill="#F56565"/>
<path d="M351.948 427.505C352.612 428.7 354.593 428.877 356.376 427.903C358.158 426.918 359.077 425.158 358.423 423.951C357.759 422.756 355.778 422.579 353.996 423.553C352.213 424.538 351.295 426.298 351.948 427.505Z" fill="#F56565"/>
<path d="M358.668 428.145C359.022 428.787 359.985 428.931 360.827 428.466C361.668 428.002 362.066 427.116 361.723 426.474C361.369 425.832 360.406 425.688 359.565 426.153C358.723 426.618 358.325 427.503 358.668 428.145Z" fill="#F56565"/>
<path d="M359.442 424.714C359.653 425.101 360.261 425.168 360.793 424.88C361.324 424.581 361.59 424.039 361.379 423.651C361.169 423.264 360.56 423.197 360.029 423.485C359.498 423.784 359.232 424.327 359.442 424.714Z" fill="#F56565"/>
<path d="M381.847 422.579C382.433 423.653 384.072 423.885 385.499 423.099C386.927 422.313 387.614 420.808 387.027 419.734C386.44 418.66 384.802 418.428 383.374 419.214C381.946 420 381.26 421.505 381.847 422.579Z" fill="#F56565"/>
<path d="M380.53 417.763C380.862 418.372 381.703 418.571 382.389 418.183C383.076 417.807 383.363 416.999 383.031 416.39C382.699 415.781 381.858 415.582 381.172 415.97C380.485 416.346 380.198 417.154 380.53 417.763Z" fill="#F56565"/>
<path d="M334.834 421.748C344.509 419.8 355.711 416.834 367.489 412.959C379.6 408.985 390.658 404.613 399.757 400.34C415.919 392.746 425.893 385.473 424.542 381.366C423.225 377.326 411.059 377.204 393.99 380.503C394.444 381.223 394.887 381.953 395.296 382.706C395.451 382.994 395.606 383.27 395.75 383.558C404.838 382.396 410.86 382.927 411.679 385.429C412.509 387.964 407.827 392.049 399.58 396.587C391.51 401.026 380.031 405.897 367.002 410.17C353.951 414.454 341.797 417.332 332.664 418.527C323.377 419.756 317.2 419.247 316.37 416.701C315.562 414.21 320.078 410.225 328.037 405.786C327.838 404.579 327.705 403.351 327.639 402.133C311.566 409.705 301.448 417.232 302.788 421.328C304.149 425.501 316.868 425.379 334.823 421.759L334.834 421.748Z" fill="#E53E3E"/>
<path d="M336.871 424.216C346.646 422.157 357.505 419.268 368.785 415.626C380.01 412.006 390.437 408.032 399.536 404.014C421.985 394.096 436.321 383.9 434.45 378.078C432.59 372.311 415.333 372.377 391.677 377.303C392.031 377.735 392.363 378.189 392.695 378.642C412.554 374.834 426.79 375.034 428.395 380.037C430.022 385.085 418.355 393.697 399.68 402.309C390.636 406.471 379.976 410.622 368.364 414.375C356.697 418.139 345.539 421.017 335.731 422.921C315.64 426.817 301.205 426.629 299.589 421.604C297.984 416.633 309.33 408.165 327.584 399.675C327.584 399.11 327.606 398.546 327.639 397.981C305.655 407.789 291.685 417.796 293.534 423.552C295.405 429.363 312.928 429.253 336.849 424.227L336.871 424.216Z" fill="#FC8181"/>
<path d="M214.249 230.417C225.375 226.62 231.315 214.52 227.515 203.394C223.717 192.269 211.619 186.328 200.493 190.127C189.367 193.925 183.427 206.025 187.225 217.151C191.023 228.276 203.122 234.217 214.249 230.417Z" fill="#EBEBEB"/>
<path d="M227.758 216.462C226.717 215.543 224.603 213.85 221.116 212.322C216.899 210.462 205.419 208.425 200.106 205.747C192.634 201.972 191.704 197.92 191.749 195.817C193.63 193.78 195.866 192.164 198.324 191.013C198.855 193.172 200.859 199.88 213.268 204.263C219.666 206.521 225.81 205.016 227.88 204.496C228.965 208.326 228.987 212.466 227.769 216.462H227.758Z" fill="#DBDBDB"/>
<path d="M219.057 228.074C213.19 231.915 205.541 232.779 198.667 229.702C196.254 228.617 194.139 227.144 192.368 225.384C193.198 224.908 194.903 224.178 196.187 223.868C201.91 222.473 208.209 225.218 210.511 226.502C214.197 228.572 217.363 228.395 219.057 228.074Z" fill="#DBDBDB"/>
<path d="M226.485 219.651C226.396 219.828 226.308 219.994 226.219 220.172C226.142 220.327 226.053 220.482 225.965 220.637C225.776 220.98 225.577 221.323 225.356 221.655C225.168 221.954 224.968 222.253 224.769 222.54C224.692 222.651 224.614 222.751 224.537 222.861C224.448 222.983 224.359 223.105 224.271 223.216C224.182 223.337 224.094 223.448 223.994 223.57C223.883 223.703 223.773 223.847 223.662 223.98C223.551 224.112 223.441 224.245 223.319 224.378C223.219 224.489 223.12 224.599 223.02 224.71C222.799 224.954 222.577 225.186 222.345 225.419C221.016 225.828 219.245 225.651 216.644 224.622C212.781 223.105 208.607 219.452 201.135 216.773C194.073 214.238 188.217 215.633 186.822 215.854C185.704 211.725 185.815 207.253 187.365 202.992C188.726 202.936 193.11 203.567 202.431 211.272C205.973 214.205 209.105 216.264 211.829 217.703C219.799 221.876 224.415 220.637 226.341 219.673C226.341 219.673 226.429 219.673 226.474 219.673L226.485 219.651Z" fill="#DBDBDB"/>
<path d="M206.249 227.664C206.626 226.801 207.954 226.535 209.216 227.089C210.478 227.642 211.198 228.782 210.81 229.657C210.434 230.52 209.105 230.786 207.844 230.232C206.582 229.679 205.862 228.539 206.249 227.664Z" fill="#C7C7C7"/>
<path d="M212.284 226.148C212.494 225.661 213.28 225.528 214.044 225.86C214.796 226.192 215.239 226.856 215.029 227.343C214.819 227.83 214.033 227.963 213.269 227.631C212.505 227.299 212.073 226.635 212.284 226.148Z" fill="#C7C7C7"/>
<path d="M195.767 200.001C196.088 199.26 197.251 199.049 198.346 199.536C199.453 200.012 200.084 201.009 199.763 201.75C199.442 202.492 198.28 202.702 197.184 202.215C196.077 201.739 195.446 200.743 195.767 200.001Z" fill="#C7C7C7"/>
<path d="M199.686 199.271C199.863 198.872 200.416 198.74 200.937 198.972C201.457 199.193 201.734 199.703 201.568 200.101C201.391 200.5 200.837 200.632 200.317 200.4C199.797 200.179 199.52 199.669 199.686 199.271Z" fill="#C7C7C7"/>
<path d="M200.317 201.242C200.417 201.009 200.771 200.932 201.103 201.076C201.435 201.22 201.623 201.53 201.512 201.762C201.413 201.995 201.059 202.072 200.727 201.928C200.394 201.784 200.206 201.474 200.317 201.242Z" fill="#C7C7C7"/>
<path d="M213.611 201.296C213.899 200.632 214.851 200.411 215.737 200.798C216.622 201.186 217.098 202.027 216.81 202.691C216.523 203.355 215.571 203.577 214.685 203.189C213.799 202.802 213.323 201.961 213.611 201.296Z" fill="#C7C7C7"/>
<path d="M213.092 204.197C213.258 203.821 213.734 203.666 214.165 203.843C214.586 204.031 214.807 204.485 214.641 204.861C214.475 205.238 213.999 205.393 213.568 205.216C213.147 205.027 212.925 204.573 213.092 204.197Z" fill="#C7C7C7"/>
<path d="M65.8453 82.0243C76.7595 77.6545 82.0647 65.2645 77.6949 54.3503C73.3252 43.4362 60.9351 38.131 50.021 42.5007C39.1068 46.8704 33.8016 59.2605 38.1713 70.1746C42.5412 81.0888 54.9312 86.394 65.8453 82.0243Z" fill="#F56565"/>
<path opacity="0.1" d="M65.8453 82.0243C76.7595 77.6545 82.0647 65.2645 77.6949 54.3503C73.3252 43.4362 60.9351 38.131 50.021 42.5007C39.1068 46.8704 33.8016 59.2605 38.1713 70.1746C42.5412 81.0888 54.9312 86.394 65.8453 82.0243Z" fill="#091327"/>
<path d="M211.685 103.441C210.899 102.512 165.358 81.3797 124.113 112.851C86.1995 141.787 73.0267 196.172 78.0633 197.478C84.2291 199.072 101.121 173.114 133.544 158.856C145.046 153.797 163.344 158.856 163.344 158.856L211.674 103.441H211.685Z" fill="#F56565"/>
<path opacity="0.1" d="M163.354 158.856C163.354 158.856 155.418 156.664 146.717 156.62C153.868 141.654 167.218 113.725 175.885 95.6487C196.287 95.8369 211.23 102.91 211.684 103.442L163.365 158.856H163.354Z" fill="#091327"/>
<path d="M286.703 191.931C287.489 192.861 300.884 241.246 263.092 276.78C228.344 309.457 172.531 313.542 172.078 308.361C171.513 302.018 199.884 289.598 219.256 259.943C226.119 249.427 224.138 230.542 224.138 230.542L286.715 191.931H286.703Z" fill="#F56565"/>
<path opacity="0.1" d="M288.497 228.771C269.081 234.428 239.303 243.095 223.562 247.667C225.013 238.955 224.127 230.553 224.127 230.553L286.692 191.943C287.146 192.474 291.718 208.514 288.486 228.782L288.497 228.771Z" fill="#091327"/>
<path d="M180.668 251.077L136.19 198.618C136.19 198.618 159.381 136.418 214.519 94.641C242.049 73.808 274.35 58.1999 303.264 47.883C343.17 33.5811 376.556 29.4299 381.725 35.5293C386.917 41.6508 377.342 73.8966 356.73 110.947C341.797 137.757 321.119 167.069 296.058 190.814C245.824 238.369 180.668 251.077 180.668 251.077Z" fill="#C7C7C7"/>
<path d="M288.719 168.354C272.015 182.523 246.986 180.453 232.817 163.749C218.648 147.045 220.718 122.017 237.422 107.847C254.126 93.6784 279.155 95.7373 293.324 112.452C307.493 129.156 305.423 154.185 288.719 168.354Z" fill="#A6A6A6"/>
<path d="M290.889 164.667C274.185 178.837 249.156 176.767 234.987 160.063C220.818 143.358 222.888 118.33 239.592 104.161C256.296 89.9919 281.325 92.0508 295.494 108.766C309.663 125.47 307.593 150.498 290.889 164.667Z" fill="#F56565"/>
<path d="M283.051 155.379C271.472 165.209 254.115 163.792 244.274 152.214C234.445 140.635 235.861 123.278 247.44 113.437C259.019 103.607 276.376 105.024 286.217 116.603C296.047 128.181 294.63 145.539 283.051 155.379Z" fill="white"/>
<path d="M283.049 155.38C280.37 157.649 277.381 159.332 274.249 160.405L252.154 158.601C249.242 157.029 246.553 154.882 244.283 152.214C242.634 150.266 241.306 148.162 240.287 145.948L288.008 149.845C286.647 151.86 284.997 153.73 283.049 155.38Z" fill="#EBEBEB"/>
<path d="M288.597 119.881L244.551 116.283C245.425 115.287 246.388 114.324 247.429 113.438C259.019 103.597 276.376 105.014 286.206 116.604C287.091 117.645 287.888 118.74 288.586 119.87L288.597 119.881Z" fill="#EBEBEB"/>
<path d="M290.977 144.133L238.286 139.838C238.108 139.03 237.987 138.233 237.909 137.392L291.752 141.787C291.541 142.573 291.276 143.359 290.977 144.145V144.133Z" fill="#EBEBEB"/>
<path d="M356.742 110.935L303.275 47.8715C343.181 33.5696 376.567 29.4185 381.737 35.5178C386.928 41.6393 377.353 73.8851 356.742 110.935Z" fill="#F56565"/>
<path d="M318.982 53.2078C318.008 54.038 316.547 53.9162 315.717 52.9421C314.886 51.968 315.008 50.5068 315.982 49.6766C316.956 48.8464 318.418 48.9681 319.248 49.9422C320.078 50.9164 319.956 52.3776 318.982 53.2078Z" fill="white"/>
<path d="M328.503 64.4326C327.529 65.2629 326.067 65.1411 325.237 64.167C324.407 63.1928 324.529 61.7317 325.503 60.9014C326.477 60.0712 327.938 60.193 328.768 61.1671C329.599 62.1412 329.477 63.6024 328.503 64.4326Z" fill="white"/>
<path d="M338.011 75.6455C337.037 76.4758 335.576 76.354 334.746 75.3799C333.916 74.4057 334.037 72.9445 335.012 72.1143C335.986 71.2841 337.447 71.4059 338.277 72.38C339.107 73.3541 338.986 74.8153 338.011 75.6455Z" fill="white"/>
<path d="M347.52 86.8587C346.546 87.6889 345.085 87.5671 344.255 86.593C343.424 85.6189 343.546 84.1577 344.52 83.3275C345.495 82.4972 346.956 82.619 347.786 83.5931C348.616 84.5673 348.494 86.0284 347.52 86.8587Z" fill="white"/>
<path d="M357.029 98.0833C356.055 98.9135 354.594 98.7917 353.763 97.8176C352.933 96.8435 353.055 95.3823 354.029 94.5521C355.003 93.7218 356.464 93.8436 357.295 94.8177C358.125 95.7919 358.003 97.2531 357.029 98.0833Z" fill="white"/>
<path d="M149.032 197.39C148.058 198.22 146.597 198.098 145.766 197.124C144.936 196.15 145.058 194.689 146.032 193.858C147.006 193.028 148.467 193.15 149.298 194.124C150.128 195.098 150.006 196.559 149.032 197.39Z" fill="#A6A6A6"/>
<path d="M158.54 208.603C157.566 209.433 156.104 209.311 155.274 208.337C154.444 207.363 154.566 205.902 155.54 205.072C156.514 204.241 157.975 204.363 158.805 205.337C159.636 206.311 159.514 207.773 158.54 208.603Z" fill="#A6A6A6"/>
<path d="M168.049 219.827C167.074 220.658 165.613 220.536 164.783 219.562C163.953 218.588 164.075 217.126 165.049 216.296C166.023 215.466 167.484 215.588 168.314 216.562C169.144 217.536 169.023 218.997 168.049 219.827Z" fill="#A6A6A6"/>
<path d="M177.569 231.041C176.595 231.871 175.134 231.749 174.304 230.775C173.473 229.801 173.595 228.34 174.569 227.51C175.543 226.68 177.005 226.801 177.835 227.775C178.665 228.75 178.543 230.211 177.569 231.041Z" fill="#A6A6A6"/>
<path d="M187.077 242.265C186.103 243.096 184.642 242.974 183.811 242C182.981 241.026 183.103 239.564 184.077 238.734C185.051 237.904 186.512 238.026 187.343 239C188.173 239.974 188.051 241.435 187.077 242.265Z" fill="#A6A6A6"/>
<path opacity="0.2" d="M379.224 33.9683C348.428 36.1601 295.117 54.8235 238.983 98.8362C197.516 131.348 167.263 188.245 153.16 218.632L136.19 198.618C136.19 198.618 159.381 136.418 214.519 94.6408C242.049 73.7968 274.35 58.1997 303.264 47.8828C339.03 35.0531 369.549 30.4039 379.224 33.9683Z" fill="white"/>
<path d="M160.81 259.622L124.646 216.96L138.704 201.584L178.278 248.254L160.81 259.622Z" fill="#F56565"/>
<path opacity="0.1" d="M178.265 248.254L169.752 253.778L133.322 207.463L138.702 201.596L178.265 248.254Z" fill="#091327"/>
<path d="M356.165 116.636L339.638 115.54L331.878 131.281L332.587 113.747L317.543 106.795L334.236 106.962L341.841 92.1504L341.431 108.788L356.165 116.636Z" fill="#FCFCFC"/>
<path d="M352.103 55.5993L342.871 54.9904L338.521 63.7797L338.919 53.9831L330.518 50.0977L339.849 50.1862L344.089 41.9172L343.868 51.2157L352.103 55.5993Z" fill="#FCFCFC"/>
<path d="M277.372 243.251L268.129 242.631L263.79 251.431L264.188 241.634L255.775 237.749L265.107 237.838L269.358 229.569L269.136 238.856L277.372 243.251Z" fill="#FCFCFC"/>
<path d="M112.956 161.611L103.724 160.991L99.3845 169.792L99.772 159.984L91.3701 156.11L100.702 156.198L104.953 147.918L104.72 157.217L112.956 161.611Z" fill="#FCFCFC"/>
<path opacity="0.6" d="M152.851 250.092C136.091 261.394 121.28 275.829 110.476 293.053C99.6609 310.211 92.9527 330.214 92.3328 350.892C92.0672 361.208 93.318 371.636 96.1076 381.754C98.8971 391.871 103.225 401.668 108.904 410.756C114.572 419.855 121.568 428.224 129.505 435.718C137.442 443.212 146.308 449.832 155.751 455.621C145.711 450.972 136.025 445.382 127.025 438.674C118.037 431.976 109.745 424.15 102.617 415.228C95.4877 406.317 89.5322 396.299 85.1597 385.506C80.7762 374.724 77.9756 363.19 76.9129 351.423C74.8318 327.834 79.8131 303.624 90.13 282.028C100.425 260.342 115.867 241.258 134.077 225.606L152.84 250.103L152.851 250.092Z" fill="#FC8181"/>
<path d="M124.181 275.806L117.583 277.035L116.111 283.987L114.639 277.035L108.041 275.806L114.606 274.201L116.111 267.637L117.605 274.201L124.181 275.806Z" fill="white"/>
<path d="M99.9036 406.03L96.2174 406.716L95.3872 410.602L94.568 406.716L90.8818 406.03L94.5459 405.133L95.3872 401.458L96.2285 405.133L99.9036 406.03Z" fill="white"/>
<path d="M97.9221 372.3L94.2359 372.976L93.4057 376.861L92.5866 372.976L88.9004 372.289L92.5644 371.393L93.4057 367.729L94.247 371.393L97.9221 372.3Z" fill="white"/>
<path d="M119.297 254.133L115.611 254.819L114.792 258.704L113.962 254.819L110.275 254.133L113.951 253.236L114.792 249.561L115.633 253.236L119.297 254.133Z" fill="white"/>
<path d="M108.626 414.442C107.254 414.442 107.254 416.578 108.626 416.578C109.999 416.578 109.999 414.442 108.626 414.442Z" fill="white"/>
<path d="M139.134 248.929C137.761 248.929 137.761 251.066 139.134 251.066C140.507 251.066 140.507 248.929 139.134 248.929Z" fill="white"/>
<path d="M81.5832 344.239C80.2106 344.239 80.2106 346.375 81.5832 346.375C82.9558 346.375 82.9558 344.239 81.5832 344.239Z" fill="white"/>
<path d="M106.723 408.874C105.749 408.874 105.749 410.391 106.723 410.391C107.697 410.391 107.697 408.874 106.723 408.874Z" fill="white"/>
<path d="M81.1964 306.901C80.2223 306.901 80.2223 308.418 81.1964 308.418C82.1705 308.418 82.1705 306.901 81.1964 306.901Z" fill="white"/>
<path d="M88.901 384.234C86.2664 384.234 86.2553 388.329 88.901 388.329C91.5466 388.329 91.5466 384.234 88.901 384.234Z" fill="white"/>
<path d="M90.8814 299.938C88.2469 299.938 88.2358 304.034 90.8814 304.034C93.5271 304.034 93.5271 299.938 90.8814 299.938Z" fill="white"/>
</svg>
