<svg xmlns="http://www.w3.org/2000/svg" width="32" height="32" viewBox="0 0 32 32" fill="none">
  <path d="M23.0534 5.5199L22.96 10.5732C22.9467 11.2666 23.3867 12.1866 23.9467 12.5999L27.2534 15.1066C29.3734 16.7066 29.0267 18.6666 26.4934 19.4666L22.1867 20.8132C21.4667 21.0399 20.7067 21.8266 20.52 22.5599L19.4934 26.4799C18.68 29.5732 16.6534 29.8799 14.9734 27.1599L12.6267 23.3599C12.2 22.6666 11.1867 22.1466 10.3867 22.1866L5.93337 22.4132C2.7467 22.5732 1.84004 20.7332 3.92004 18.3066L6.56004 15.2399C7.05337 14.6666 7.28004 13.5999 7.05337 12.8799L5.69337 8.5599C4.9067 6.02656 6.32004 4.62656 8.84004 5.45323L12.7734 6.74656C13.44 6.9599 14.44 6.81323 15 6.3999L19.1067 3.4399C21.3334 1.85323 23.1067 2.78656 23.0534 5.5199Z" fill="#F6892F"/>
  <path d="M28.5871 27.2934L24.5471 23.2534C24.1604 22.8667 23.5204 22.8667 23.1338 23.2534C22.7471 23.64 22.7471 24.28 23.1338 24.6667L27.1737 28.7067C27.3737 28.9067 27.6271 29 27.8804 29C28.1338 29 28.3871 28.9067 28.5871 28.7067C28.9738 28.32 28.9738 27.68 28.5871 27.2934Z" fill="#F6892F"/>
</svg>