<svg xmlns="http://www.w3.org/2000/svg" width="32" height="32" viewBox="0 0 32 32" fill="none">
  <path d="M21.3337 2.62671H10.667C5.33366 2.62671 2.66699 5.29338 2.66699 10.6267V17.2934C2.66699 23.96 5.33366 25.2934 10.667 25.2934H11.3337C11.707 25.2934 12.187 25.5334 12.4003 25.8267L14.4003 28.4934C15.2803 29.6667 16.7203 29.6667 17.6003 28.4934L19.6003 25.8267C19.8537 25.4934 20.2537 25.2934 20.667 25.2934H21.3337C26.667 25.2934 29.3337 22.6267 29.3337 17.2934V10.6267C29.3337 5.29338 26.667 2.62671 21.3337 2.62671ZM11.3737 16.2267C11.7603 16.6134 11.7603 17.2534 11.3737 17.64C11.1737 17.84 10.9203 17.9334 10.667 17.9334C10.4137 17.9334 10.1603 17.84 9.96033 17.64L7.29366 14.9734C6.90699 14.5867 6.90699 13.9467 7.29366 13.56L9.96033 10.8934C10.347 10.5067 10.987 10.5067 11.3737 10.8934C11.7603 11.28 11.7603 11.92 11.3737 12.3067L9.41366 14.2667L11.3737 16.2267ZM18.2537 11.5467L15.587 17.7734C15.427 18.1467 15.0537 18.3734 14.667 18.3734C14.5337 18.3734 14.4003 18.3467 14.267 18.2934C13.7603 18.08 13.5203 17.4934 13.747 16.9734L16.4137 10.7467C16.627 10.24 17.2137 10 17.7337 10.2267C18.2403 10.4534 18.467 11.04 18.2537 11.5467ZM24.707 14.9734L22.0403 17.64C21.8403 17.84 21.587 17.9334 21.3337 17.9334C21.0803 17.9334 20.827 17.84 20.627 17.64C20.2403 17.2534 20.2403 16.6134 20.627 16.2267L22.587 14.2667L20.627 12.3067C20.2403 11.92 20.2403 11.28 20.627 10.8934C21.0137 10.5067 21.6537 10.5067 22.0403 10.8934L24.707 13.56C25.0937 13.9467 25.0937 14.5867 24.707 14.9734Z" fill="#F6892F"/>
</svg>