<svg xmlns="http://www.w3.org/2000/svg" width="32" height="32" viewBox="0 0 32 32" fill="none">
  <path d="M11.1865 24.6532V11.1066C11.1865 10.5732 11.3465 10.0532 11.6399 9.61322L15.2799 4.19989C15.8532 3.33322 17.2799 2.71989 18.4932 3.17322C19.7999 3.61322 20.6665 5.07989 20.3865 6.38655L19.6932 10.7466C19.6399 11.1466 19.7465 11.5066 19.9732 11.7866C20.1999 12.0399 20.5332 12.1999 20.8932 12.1999H26.3732C27.4265 12.1999 28.3332 12.6266 28.8665 13.3732C29.3732 14.0932 29.4665 15.0266 29.1332 15.9732L25.8532 25.9599C25.4399 27.6132 23.6399 28.9599 21.8532 28.9599H16.6532C15.7599 28.9599 14.5065 28.6532 13.9332 28.0799L12.2265 26.7599C11.5732 26.2666 11.1865 25.4799 11.1865 24.6532Z" fill="#F6892F"/>
  <path d="M6.94699 8.50659H5.57366C3.50699 8.50659 2.66699 9.30659 2.66699 11.2799V24.6933C2.66699 26.6666 3.50699 27.4666 5.57366 27.4666H6.94699C9.01366 27.4666 9.85366 26.6666 9.85366 24.6933V11.2799C9.85366 9.30659 9.01366 8.50659 6.94699 8.50659Z" fill="#F6892F"/>
</svg>