<svg xmlns="http://www.w3.org/2000/svg" width="138" height="22" fill="none" viewBox="0 0 138 22"><g fill="#BCBCBC" clip-path="url(#clip0_2151_67606)"><path d="M12.193 8.525h-3.3v7.517c0 1.283.733 1.558 1.925 1.558.458 0 .916-.092 1.375-.092v3.942c-1.009 0-2.017.183-2.934.183-4.583 0-5.775-1.375-5.775-5.866V8.525H.734V4.95h2.75V0h5.409v4.95h3.3v3.575zm4.766 6.05c.092 2.292 1.375 3.758 3.667 3.758 1.283 0 2.567-.641 3.117-1.833h5.041c-.916 3.85-4.491 5.5-8.158 5.5-5.408 0-9.075-3.208-9.075-8.8 0-5.042 4.033-8.708 8.892-8.708 5.958 0 8.891 4.491 8.616 10.083h-12.1zm6.692-3.025c-.092-1.833-1.375-3.392-3.208-3.392-1.925 0-3.209 1.375-3.484 3.392h6.692zM40.976 11c0-1.375-1.283-2.383-2.658-2.383-3.025 0-3.484 2.566-3.484 4.858 0 2.108.917 4.308 3.209 4.308 1.925 0 2.841-1.1 3.116-2.841h5.225c-.458 4.491-3.85 7.058-8.25 7.058-4.95 0-8.708-3.392-8.708-8.433 0-5.042 3.3-8.984 8.708-8.984 4.125 0 7.792 2.2 8.159 6.509h-5.317V11zm5.592-11h5.408v7.242h.092c.825-1.65 3.025-2.75 5.041-2.75 5.5 0 5.959 4.033 5.959 6.416v10.634h-5.409v-7.975c0-2.292.275-4.584-2.75-4.584-2.016 0-2.933 1.742-2.933 3.575v8.984h-5.408V0zm16.958 4.95h5.225v2.933h.092c.825-2.108 2.658-3.208 4.95-3.208.458 0 .825 0 1.283.092v4.95a8.322 8.322 0 00-2.108-.275c-2.659 0-4.034 1.833-4.034 3.941v8.159h-5.408V4.95zm11.55 5.133c.092-2.2 1.1-3.575 2.567-4.4 1.466-.825 3.391-1.191 5.225-1.191 3.941 0 7.7.825 7.7 5.5v7.241c0 1.375 0 2.934.641 4.217h-5.408c-.183-.55-.275-1.008-.275-1.558C84.059 21.45 82.043 22 80.026 22c-3.117 0-5.683-1.558-5.683-5.042 0-5.408 5.866-4.95 9.625-5.775.916-.183 1.466-.55 1.466-1.558 0-1.283-1.466-1.742-2.658-1.742-1.467 0-2.475.642-2.75 2.109h-4.95v.091zm6.967 8.617c2.566 0 3.483-1.467 3.3-4.858-.734.458-2.2.55-3.3.916-1.192.275-2.2.825-2.2 2.109 0 1.283 1.008 1.833 2.2 1.833zm26.033 2.842h-5.133v-1.925h-.092A5.219 5.219 0 0198.359 22c-5.225 0-7.425-4.492-7.425-9.075 0-4.308 2.292-8.342 6.967-8.342 2.017 0 3.575.734 4.675 2.292h.092V0h5.408v21.542zm-11.733-8.434c0 2.292.825 4.767 3.3 4.767 2.658 0 3.208-2.475 3.208-4.583 0-2.384-.825-4.584-3.208-4.584-2.475-.091-3.3 2.292-3.3 4.4zm12.558-3.025c.092-2.2 1.1-3.575 2.567-4.4 1.466-.825 3.391-1.191 5.225-1.191 3.941 0 7.7.825 7.7 5.5v7.241c0 1.375 0 2.934.641 4.217h-5.408c-.183-.55-.275-1.008-.275-1.558-1.467 1.558-3.575 2.108-5.5 2.108-3.117 0-5.683-1.558-5.683-5.042 0-5.408 5.866-4.95 9.625-5.775.916-.183 1.466-.55 1.466-1.558 0-1.283-1.466-1.742-2.658-1.742-1.467 0-2.475.642-2.75 2.109h-4.95v.091zm6.967 8.617c2.566 0 3.483-1.467 3.3-4.858-.734.458-2.2.55-3.3.916-1.192.275-2.2.825-2.2 2.109-.092 1.283 1.008 1.833 2.2 1.833zm9.35-13.75h5.225v2.933h.091c.825-2.108 2.659-3.208 4.95-3.208.459 0 1.375 0 1.834.092v4.95c-.734-.184-1.834-.275-2.567-.275-2.658 0-4.033 1.833-4.033 3.941v8.159h-5.409V4.95h-.091z"></path><path d="M131.906 16.133h5.409v5.409h-5.409v-5.409z"></path></g><defs><clipPath id="clip0_2151_67606"><path fill="#fff" d="M0 0H136.583V22H0z" transform="translate(.734)"></path></clipPath></defs></svg>