<svg xmlns="http://www.w3.org/2000/svg" width="195" height="20" fill="none" viewBox="0 0 195 20"><g clip-path="url(#clip0_2151_67609)"><path fill="#BCBCBC" d="M15.07 1.566c-5.024.023-10.046.017-15.07.019v3.86c1.592-.014 3.185.013 4.775-.058.738-.033.886.197.88.86-.036 3.779.003 7.559-.036 11.339-.006.702.206.879.906.834.913-.06 1.838-.058 2.752 0 .721.043.96-.139.95-.873-.043-3.805-.008-7.61-.032-11.415-.004-.557.12-.761.75-.74 1.402.047 2.808-.005 4.211.024.507.01.652-.152.635-.617a27.71 27.71 0 01.002-2.544c.028-.542-.158-.689-.723-.687v-.002zm54.043 8.435c0-2.575-.013-5.148.011-7.723.005-.512-.102-.74-.704-.714a41.48 41.48 0 01-3.243 0c-.55-.02-.683.17-.674.662.028 1.622-.013 3.244.024 4.866.013.557-.124.763-.756.75a162.09 162.09 0 00-5.84-.001c-.565.008-.74-.143-.728-.687.037-1.622-.013-3.244.028-4.866.015-.59-.182-.75-.781-.726-1.053.045-2.11.029-3.164.004-.461-.01-.678.077-.676.584.017 5.227.017 10.451 0 15.677 0 .51.223.593.68.582a56.678 56.678 0 013.244.004c.54.019.7-.144.693-.65-.026-1.828.009-3.656-.022-5.482-.008-.503.141-.66.68-.652 1.973.029 3.948.033 5.923 0 .578-.01.73.163.721.696-.03 1.8.009 3.604-.024 5.405-.01.55.176.706.734.686a42.57 42.57 0 013.164 0c.57.022.734-.151.728-.692-.028-2.573-.013-5.148-.013-7.723h-.005zM30.54 1.562c-3.786.033-7.569.031-11.354 0-.654-.004-.877.13-.866.794.043 2.522.017 5.043.017 7.567 0 2.6.007 5.197-.006 7.797-.002.442.026.702.63.698 3.92-.027 7.839-.019 11.758-.007.449 0 .626-.113.609-.563-.03-.875-.04-1.752.002-2.624.024-.504-.134-.667-.675-.659-1.865.03-3.732.025-5.596.004-.69-.008-1.59.295-2.02-.142-.423-.431-.066-1.28-.141-1.938-.067-.573.13-.742.749-.732 2.27.037 4.541.002 6.813.025.502.004.727-.087.697-.625a22.67 22.67 0 010-2.547c.03-.534-.189-.65-.695-.643-1.893.02-3.785.008-5.676.008-1.893 0-1.864 0-1.895-1.816-.01-.613.176-.778.812-.767 2.324.035 4.65.002 6.975.022.483.004.676-.109.654-.6a23.469 23.469 0 010-2.47c.035-.592-.132-.788-.794-.782h.002zm123.856 7.244c-.92-.385-1.871-.66-2.841-.893-1.1-.262-2.233-.402-3.294-.805-.459-.173-.918-.394-.853-.982.063-.571.49-.833 1.016-.965.232-.058.481-.069.723-.075 1.73-.045 3.32.407 4.729 1.35.47.313.702.262 1.014-.167a32.547 32.547 0 011.719-2.148c.293-.339.267-.52-.106-.782a10.48 10.48 0 00-4.749-1.855c-2.408-.318-4.746-.207-6.849 1.17-2.969 1.941-3.185 6.76.777 8.395.973.4 1.98.675 3.008.902 1.076.237 2.185.367 3.212.788.407.167.779.4.773.894-.007.462-.312.75-.706.965-.533.29-1.122.367-1.722.367-1.938 0-3.67-.573-5.145-1.772-.427-.346-.654-.39-.977.097a23.464 23.464 0 01-1.632 2.208c-.373.441-.258.662.153.978 2.127 1.632 4.604 2.191 7.426 2.23 1.7-.043 3.477-.311 5.084-1.328 2.646-1.674 3.517-6.772-.766-8.572h.006zM41.131 5.462c2.122-.751 3.87-.176 5.362 1.818.23.307.394.247.654.128.974-.444 1.94-.904 2.93-1.315.456-.188.535-.349.268-.778-1.481-2.39-3.646-3.747-6.553-3.965-6.238-.47-11.331 3.742-10.325 10.188.665 4.257 4.102 7.775 10.533 7.16 2.08-.2 4.606-1.275 6.31-3.955.258-.407.301-.626-.249-.838a30.383 30.383 0 01-2.706-1.217c-.466-.234-.704-.242-1 .251-.56.927-1.437 1.523-2.539 1.783-2.84.67-5.554-1.358-5.814-4.341-.189-2.175 1.1-4.2 3.129-4.917v-.002zm35.436 12.964c1.613 0 3.073-.02 4.53.012.509.013.77-.157.988-.588.907-1.81 1.849-3.605 2.78-5.404.472-.91.953-1.818 1.475-2.81.15.254.236.384.305.52 1.34 2.581 2.679 5.164 4.015 7.748.117.223.158.516.515.516h4.948L86.333-.002l-9.766 18.426v.002zm55.91-16.86a77.469 77.469 0 01-3.729.002c-.426-.008-.682.095-.877.493-.647 1.33-1.34 2.637-2.022 3.95-.743 1.432-1.494 2.86-2.291 4.378-.243-.464-.427-.807-.605-1.151-1.229-2.373-2.47-4.742-3.679-7.125-.205-.407-.448-.56-.924-.549a57.615 57.615 0 01-3.729-.002c-.784-.03-.754.186-.453.751 2.06 3.846 4.089 7.707 6.128 11.563 1.066 2.014 2.136 4.024 3.249 6.122 1.195-2.251 2.341-4.405 3.486-6.56 1.975-3.713 3.937-7.434 5.938-11.135.351-.648.197-.76-.494-.739l.002.002zm7.242.58c0-.43-.126-.59-.594-.578a57.412 57.412 0 01-3.319-.002c-.542-.018-.68.161-.676.656.024 2.596.011 5.192.011 7.787 0 2.57.015 5.14-.011 7.71-.004.527.136.72.717.697a45.786 45.786 0 013.239-.003c.505.015.639-.152.637-.616a2915.94 2915.94 0 010-15.651h-.004zm-32.615-.398c-2.904-.372-5.829-.083-8.744-.186-.652-.023-.745.21-.738.751.026 2.546.013 5.092.013 7.64 0 2.549.01 5.196-.011 7.796-.004.483.104.675.665.667 2.349-.03 4.701.014 7.053-.021 2.12-.031 4.123-.516 5.877-1.707 2.817-1.912 4.032-5.412 3.138-8.963-.804-3.188-3.573-5.507-7.25-5.977h-.003zm-1.511 12.807c-.942.056-1.888 0-2.833.029-.437.012-.55-.149-.543-.54.019-1.363.006-2.722.006-4.084 0-1.31.026-2.62-.013-3.929-.015-.52.167-.66.689-.637.888.041 1.782-.015 2.67.03 2.646.135 4.357 1.913 4.381 4.523.024 2.474-1.834 4.461-4.359 4.61l.002-.002zm85.87-1.742c-.245-.408-.297-.61.246-.846a4.577 4.577 0 002.389-2.319c1.449-3.11.134-7.801-5.121-8.028-2.915-.126-5.841-.03-8.76-.052-.441-.004-.61.095-.608.553.015 5.251.015 10.503 0 15.754 0 .479.206.543.626.536 1.108-.02 2.217-.03 3.326.005.504.014.647-.145.636-.613-.03-1.261-.01-2.524-.01-3.785 0-1.262 0-1.279 1.321-1.279 1.128 0 1.004-.012 1.468.859.758 1.421 1.481 2.86 2.23 4.285.147.279.262.537.691.53 1.561-.02 3.125-.008 4.84-.008-1.144-1.958-2.194-3.782-3.274-5.59v-.002zm-3.175-3.92c-1.23.103-2.473.043-3.709.062-.336.004-.395-.18-.392-.446.006-.87.015-1.743-.005-2.614-.008-.361.113-.51.505-.495.565.023 1.13.006 1.695.006v.019c.592 0 1.187-.037 1.776.008 1.046.082 1.763.755 1.819 1.642.056.925-.598 1.727-1.687 1.818h-.002zm-19.892-7.587c-5.492-.018-9.524 3.592-9.539 8.547-.017 5.137 3.863 8.827 9.301 8.845 5.604.02 9.554-3.553 9.569-8.658.015-5.055-3.896-8.715-9.331-8.734zm-.067 13.544c-2.791.012-4.825-2.039-4.818-4.857.006-2.829 2.042-4.865 4.835-4.84 2.759.024 4.738 2.052 4.734 4.856-.002 2.794-2.001 4.83-4.751 4.843v-.002z"></path></g><defs><clipPath id="clip0_2151_67609"><path fill="#fff" d="M0 0H194.737V20H0z"></path></clipPath></defs></svg>