<svg width="56" height="56" viewBox="0 0 56 56" fill="none" xmlns="http://www.w3.org/2000/svg">
<g clip-path="url(#clip0_45_5706)">
<path d="M28 56C43.464 56 56 43.464 56 28C56 12.536 43.464 0 28 0C12.536 0 0 12.536 0 28C0 43.464 12.536 56 28 56Z" fill="#F0F0F0"/>
<path d="M5.78839 10.953C3.58897 13.8146 1.93052 17.1128 0.964844 20.6958H15.5312L5.78839 10.953Z" fill="#0052B4"/>
<path d="M55.0359 20.6958C54.0702 17.1129 52.4116 13.8147 50.2123 10.9531L40.4697 20.6958H55.0359Z" fill="#0052B4"/>
<path d="M0.964844 35.3045C1.93062 38.8874 3.58908 42.1856 5.78839 45.0471L15.5309 35.3045H0.964844Z" fill="#0052B4"/>
<path d="M45.0474 5.78823C42.1858 3.5888 38.8877 1.93035 35.3047 0.964569V15.5308L45.0474 5.78823Z" fill="#0052B4"/>
<path d="M10.9531 50.2118C13.8147 52.4112 17.1129 54.0696 20.6958 55.0354V40.4693L10.9531 50.2118Z" fill="#0052B4"/>
<path d="M20.6957 0.964569C17.1128 1.93035 13.8146 3.5888 10.9531 5.78812L20.6957 15.5307V0.964569Z" fill="#0052B4"/>
<path d="M35.3047 55.0354C38.8876 54.0696 42.1858 52.4112 45.0473 50.2119L35.3047 40.4693V55.0354Z" fill="#0052B4"/>
<path d="M40.4697 35.3045L50.2123 45.0472C52.4116 42.1857 54.0702 38.8874 55.0359 35.3045H40.4697Z" fill="#0052B4"/>
<path d="M55.763 24.3479H31.6524H31.6523V0.237016C30.4567 0.081375 29.2378 0 28 0C26.762 0 25.5433 0.081375 24.3479 0.237016V24.3476V24.3477H0.237016C0.081375 25.5433 0 26.7622 0 28C0 29.238 0.081375 30.4567 0.237016 31.6521H24.3476H24.3477V55.763C25.5433 55.9186 26.762 56 28 56C29.2378 56 30.4567 55.9187 31.6521 55.763V31.6524V31.6523H55.763C55.9186 30.4567 56 29.238 56 28C56 26.7622 55.9186 25.5433 55.763 24.3479Z" fill="#D80027"/>
<path d="M35.3047 35.3045L47.7992 47.7991C48.3739 47.2246 48.9221 46.624 49.4451 46.0015L38.748 35.3044H35.3047V35.3045Z" fill="#D80027"/>
<path d="M20.6958 35.3045H20.6956L8.20117 47.799C8.77561 48.3736 9.37619 48.9218 9.99875 49.4448L20.6958 38.7475V35.3045Z" fill="#D80027"/>
<path d="M20.6951 20.6958V20.6956L8.20056 8.20093C7.62591 8.77537 7.07772 9.37594 6.55469 9.99851L17.2519 20.6957H20.6951V20.6958Z" fill="#D80027"/>
<path d="M35.3047 20.6958L47.7994 8.20103C47.2249 7.62638 46.6243 7.07819 46.0018 6.55527L35.3047 17.2525V20.6958Z" fill="#D80027"/>
</g>
<defs>
<clipPath id="clip0_45_5706">
<rect width="56" height="56" fill="white"/>
</clipPath>
</defs>
</svg>
