<svg width="32" height="32" viewBox="0 0 32 32" fill="none" xmlns="http://www.w3.org/2000/svg">
<path d="M16.0364 0L15.9636 0C7.14713 0 0 7.14713 0 15.9636L0 16.0364C0 24.8529 7.14713 32 15.9636 32H16.0364C24.8529 32 32 24.8529 32 16.0364V15.9636C32 7.14713 24.8529 0 16.0364 0Z" fill="#00E510"/>
<path d="M19.118 20.68C15.0225 20.68 11.6906 17.3469 11.6895 13.2515C11.6906 12.2133 12.5359 11.3691 13.5718 11.3691C13.6783 11.3691 13.7837 11.3781 13.8846 11.396C14.1066 11.433 14.3174 11.5082 14.5113 11.6214C14.5393 11.6382 14.5584 11.6651 14.5629 11.6965L14.9956 14.4242C15.0012 14.4567 14.9911 14.4881 14.9698 14.5116C14.731 14.7762 14.4261 14.9668 14.0864 15.0621L13.9227 15.1081L13.9844 15.2661C14.5427 16.6877 15.6795 17.8234 17.1022 18.384L17.2603 18.4467L17.3062 18.2831C17.4015 17.9434 17.5921 17.6384 17.8567 17.3996C17.8758 17.3817 17.9016 17.3727 17.9273 17.3727C17.9329 17.3727 17.9386 17.3727 17.9453 17.3738L20.673 17.8066C20.7055 17.8122 20.7324 17.8301 20.7492 17.8582C20.8613 18.0521 20.9364 18.264 20.9745 18.486C20.9925 18.5846 21.0003 18.6889 21.0003 18.7977C21.0003 19.8347 20.1561 20.6789 19.118 20.68Z" fill="#FDFDFD"/>
<path d="M26.3809 15.1014C26.16 12.6058 25.0165 10.2907 23.161 8.5832C21.2944 6.86565 18.8727 5.91943 16.3401 5.91943C10.7817 5.91943 6.25909 10.442 6.25909 16.0005C6.25909 17.866 6.77367 19.6834 7.74792 21.2664L5.5752 26.076L12.5317 25.3349C13.7414 25.8304 15.0217 26.0816 16.339 26.0816C16.6855 26.0816 17.0409 26.0636 17.3974 26.0266C17.7113 25.993 18.0286 25.9437 18.3402 25.8809C22.9951 24.9403 26.3932 20.809 26.4201 16.0543V16.0005C26.4201 15.6978 26.4067 15.3951 26.3797 15.1014H26.3809ZM12.7997 23.2239L8.95089 23.6342L10.1 21.0881L9.8702 20.7798C9.85338 20.7574 9.83657 20.735 9.81751 20.7092C8.81971 19.3313 8.29278 17.7035 8.29278 16.0016C8.29278 11.5642 11.9028 7.95426 16.3401 7.95426C20.4972 7.95426 24.0209 11.1976 24.3606 15.3379C24.3786 15.5599 24.3886 15.783 24.3886 16.0027C24.3886 16.0655 24.3875 16.1272 24.3864 16.1933C24.3012 19.9053 21.7081 23.0579 18.0801 23.8606C17.8032 23.9223 17.5196 23.9694 17.237 23.9997C16.9433 24.0333 16.6417 24.0501 16.3424 24.0501C15.2762 24.0501 14.2403 23.8438 13.2616 23.4357C13.1528 23.392 13.0463 23.3449 12.9465 23.2967L12.8008 23.2261L12.7997 23.2239Z" fill="#FDFDFD"/>
</svg>
